<svg width="403" height="265" viewBox="0 0 403 265" fill="none" xmlns="http://www.w3.org/2000/svg">
<g clip-path="url(#clip0_386_156)">
<path d="M102.26 301.09C149.248 301.09 187.34 291.585 187.34 279.86C187.34 268.135 149.248 258.63 102.26 258.63C55.2715 258.63 17.1799 268.135 17.1799 279.86C17.1799 291.585 55.2715 301.09 102.26 301.09Z" fill="#C3DBDA"/>
<path d="M290.94 301.09C345.108 301.09 389.02 289.705 389.02 275.66C389.02 261.615 345.108 250.23 290.94 250.23C236.772 250.23 192.86 261.615 192.86 275.66C192.86 289.705 236.772 301.09 290.94 301.09Z" fill="#C3DBDA"/>
<path d="M203.93 290.72C258.098 290.72 302.01 277.186 302.01 260.49C302.01 243.794 258.098 230.26 203.93 230.26C149.762 230.26 105.85 243.794 105.85 260.49C105.85 277.186 149.762 290.72 203.93 290.72Z" fill="#EDEBCC"/>
<path d="M257.57 226.91L279.51 61.3701L158.4 93.9801L182.87 252.36L257.57 226.91Z" fill="#D9A72A"/>
<path d="M279.51 61.3701L161.59 99.3101L90.79 53.9801L200.92 35.6401L215.82 40.5201L235.79 47.0601L279.51 61.3701Z" fill="#F0C04A"/>
<path d="M235.81 232.79C239.94 179.65 238.46 122.35 236.31 68.9402C236.81 69.0702 237.31 69.1902 237.82 69.3202C226.02 60.3002 213.58 53.2102 200.78 48.2102L173.2 59.1102C186 64.1002 201.49 71.9502 213.29 80.9702C212.79 80.8402 212.29 80.7202 211.78 80.5902C213.93 134 215.41 191.3 211.28 244.44L235.8 232.78L235.81 232.79Z" fill="#8FB73A"/>
<path d="M235.79 47.06C227.54 48.81 219.12 50.11 210.93 51.75C205.25 52.89 199.04 53.49 193.52 55.25C184.01 58.27 174.29 55.15 164.66 54.46C180.83 47.14 198.17 42.42 215.82 40.52L235.79 47.06Z" fill="#8FB73A"/>
<path d="M90.79 53.9802L124.43 219.25L182.87 252.36L158.4 93.9802L90.79 53.9802Z" fill="#BA8D1E"/>
<path d="M100.16 59.17C105.26 60.63 109.57 65.37 114.35 68.24C121.41 72.48 128.92 75.45 136.11 79.15C141.71 82.03 147.29 84.96 152.86 88C155.42 89.4 158.03 90.26 159.97 92.88C194.48 84.65 228.72 72.47 263.4 66.23C263.84 66.15 263.86 67.13 263.5 67.33C246.48 77.07 228.4 81.33 210.55 86.15C194.23 90.56 177.85 94.55 161.58 99.32C162.78 107.47 163.41 115.93 164.54 124.08C165.99 134.55 167.47 145.01 168.93 155.47C171.71 175.33 174.54 195.32 176.25 215.46C176.33 216.41 175.35 216.54 175.18 215.68C171.1 195.18 168.22 174.03 165.26 153.09C163.87 143.3 162.47 133.51 161.1 123.71C160.04 116.11 158.65 107.86 158.53 99.89C157.28 99.45 156.57 97.4 156.73 95.69C148.01 89.72 138.36 85.7 129.43 80.79C124.05 77.84 118.91 74.14 113.57 71.05C108.77 68.27 103.73 66.37 99.2101 62.58C97.9301 61.51 98.8401 58.8 100.16 59.18V59.17Z" fill="#FFD878"/>
<path d="M181.1 56.66C170.79 58.95 162.39 64.85 152.08 67.14C143.44 69.06 133.76 72.41 125.97 76.51C126.3 76.46 118.34 73.08 118.66 72.96C112.96 70.68 113.5 68.14 107.81 65.86C124.01 61.83 141.64 56.01 158.13 53.38C162.22 52.73 166.37 52.07 170.49 52.56C174.6 53.05 178.74 54.85 181.15 58.22C180.72 57.9 180.29 57.59 179.85 57.27" fill="#6A872A"/>
<path d="M125.85 170.67C129.54 189.21 132.23 206.47 136.03 224.96C142.44 229.26 148.85 233.56 155.25 237.86C153.79 236.75 152.4 222.23 151.9 219.5C150.64 212.61 149.39 205.73 148.13 198.84C145.62 185.07 143.1 171.3 140.59 157.52C138.15 144.13 135.7 130.74 133.26 117.35C132 110.46 130.75 103.58 129.49 96.6901C128.63 91.9701 128.18 82.8401 126.1 79.0601C122.03 71.6901 113.27 72.2801 107.72 69.0701C109.76 77.4001 109.97 84.3001 111.19 92.8001C112.39 101.17 114.06 109.35 115.5 117.63C118.61 135.51 122.35 153.15 125.83 170.66L125.85 170.67Z" fill="#6A872A"/>
<path d="M211.05 12.7202C209.82 20.7102 208.6 28.7102 207.37 36.7002Z" fill="#E6369F"/>
<path d="M190.29 3.74011C188.49 6.31011 187.49 9.34011 186.58 12.3501C182.13 26.9801 179.12 42.0501 177.6 57.2701C179.46 58.3901 181.99 57.6201 183.53 56.0901C185.07 54.5501 185.84 52.4301 186.57 50.3901C191.72 35.9301 196.88 21.4801 202.03 7.02011C205.04 -1.40989 194.26 -1.91989 190.29 3.74011Z" fill="#6A872A"/>
<path d="M216.93 18.6702C217.99 13.7402 217.16 5.57021 212.15 2.66021C210.06 1.45021 206.2 1.04021 203.79 0.530205C202.17 0.190205 194.66 0.900205 193.9 0.210205C202.62 8.09021 197.08 21.9002 194.08 31.1802C191.08 40.4602 185.73 48.4002 182.01 57.2602C188.08 59.7702 199.77 47.8502 203.44 43.9802C210.09 36.9502 214.9 28.1502 216.93 18.6702Z" fill="#8FB73A"/>
<path d="M143.95 20.56C142.66 15.91 147.35 14.38 151.09 15.09C157.38 16.28 163.22 20.55 167.49 25.14C172.74 30.8 176.51 37.68 179.55 44.78C181.23 48.69 182.66 53.36 180.5 57.02C174.24 54.33 170.19 48.27 166.61 42.47C163.03 36.67 159.24 30.52 153.18 27.41C151.42 26.5 149.51 25.89 147.78 24.91C146.06 23.93 144.47 22.48 143.94 20.57L143.95 20.56Z" fill="#6A872A"/>
<path d="M134.44 28.7402C142.6 42.3302 163.26 60.5202 180.41 56.0202C176.79 50.5602 169.48 47.7902 164.71 43.3502C158.74 37.7902 151.62 31.0002 149.73 22.7402C149.08 19.9102 149.54 16.6702 151.57 14.5902C147.14 14.4502 142.68 15.2202 138.56 16.8402C135.97 17.8602 133.26 19.5302 132.65 22.2402C132.15 24.4902 133.26 26.7602 134.44 28.7402Z" fill="#8FB73A"/>
<path d="M161.69 52.6201C164.81 52.9701 167.86 53.9301 170.95 54.5401C174.37 55.2101 177.81 55.6601 181.26 56.1601C182.02 56.2701 181.84 57.5501 181.08 57.5001C174.69 57.0901 167.29 56.3201 161.4 53.7301C160.87 53.5001 161.13 52.5601 161.7 52.6301L161.69 52.6201Z" fill="#6A872A"/>
<path d="M198.34 116.86L193.29 115.17L188.72 117.88L188.77 112.56L184.77 109.05L189.85 107.45L191.96 102.56L195.04 106.9L200.34 107.4L197.17 111.67L198.34 116.86Z" fill="#FFD878"/>
<path d="M215 161.96L209.95 160.26L205.37 162.98L205.43 157.65L201.43 154.14L206.51 152.54L208.62 147.66L211.7 151.99L217 152.49L213.83 156.76L215 161.96Z" fill="#FFD878"/>
<path d="M209.71 227.81L204.66 226.12L200.09 228.83L200.14 223.51L196.14 220L201.22 218.4L203.33 213.51L206.41 217.85L211.71 218.35L208.54 222.62L209.71 227.81Z" fill="#FFD878"/>
<path d="M192.08 181.21L187.03 179.51L182.46 182.23L182.51 176.9L178.51 173.39L183.59 171.8L185.7 166.91L188.78 171.24L194.08 171.74L190.91 176.01L192.08 181.21Z" fill="#FFD878"/>
<path d="M151.39 111.67L147.64 109.33L143.76 111.42L144.41 106.16L141.69 102.15L145.84 101.23L148.05 96.6602L149.96 101.36L154.04 102.55L151.07 106.37L151.39 111.67Z" fill="#D9A72A"/>
<path d="M132.53 206.91L128.79 204.58L124.9 206.67L125.56 201.4L122.84 197.39L126.99 196.48L129.19 191.91L131.11 196.61L135.19 197.79L132.22 201.61L132.53 206.91Z" fill="#D9A72A"/>
<path d="M155.6 171.43L151.86 169.1L147.97 171.19L148.62 165.92L145.91 161.91L150.06 161L152.26 156.43L154.17 161.13L158.25 162.31L155.29 166.13L155.6 171.43Z" fill="#D9A72A"/>
<path d="M122.18 147.02L118.43 144.68L114.55 146.77L115.2 141.5L112.48 137.5L116.63 136.58L118.84 132.01L120.75 136.71L124.83 137.89L121.86 141.72L122.18 147.02Z" fill="#D9A72A"/>
<path d="M155.89 139.75L154.25 138.72L152.53 139.64L152.82 137.32L151.62 135.55L153.45 135.15L154.42 133.14L155.27 135.21L157.06 135.73L155.76 137.41L155.89 139.75Z" fill="#D9A72A"/>
<path d="M147.83 147.55L146.18 146.52L144.47 147.44L144.76 145.12L143.56 143.35L145.39 142.95L146.36 140.94L147.2 143.01L149 143.53L147.69 145.21L147.83 147.55Z" fill="#D9A72A"/>
<path d="M164.22 208.35L162.57 207.32L160.86 208.24L161.14 205.92L159.95 204.16L161.77 203.75L162.75 201.74L163.59 203.81L165.38 204.33L164.08 206.01L164.22 208.35Z" fill="#D9A72A"/>
<path d="M164.22 186.33L162.57 185.3L160.86 186.22L161.14 183.9L159.95 182.13L161.77 181.73L162.75 179.72L163.59 181.79L165.38 182.31L164.08 183.99L164.22 186.33Z" fill="#D9A72A"/>
<path d="M122.04 168.04L120.4 167.01L118.68 167.93L118.97 165.61L117.77 163.85L119.6 163.44L120.57 161.43L121.42 163.5L123.21 164.02L121.91 165.71L122.04 168.04Z" fill="#D9A72A"/>
<path d="M107.94 89.5902L106.29 88.5602L104.58 89.4802L104.87 87.1602L103.67 85.4002L105.5 84.9902L106.47 82.9802L107.31 85.0502L109.11 85.5702L107.81 87.2602L107.94 89.5902Z" fill="#D9A72A"/>
<path d="M141.1 121.19L139.45 120.16L137.74 121.08L138.03 118.76L136.83 116.99L138.66 116.59L139.63 114.58L140.47 116.65L142.27 117.17L140.96 118.85L141.1 121.19Z" fill="#D9A72A"/>
<path d="M109.35 113.53L107.7 112.5L105.99 113.42L106.28 111.1L105.08 109.34L106.91 108.93L107.88 106.92L108.72 108.99L110.52 109.51L109.21 111.19L109.35 113.53Z" fill="#D9A72A"/>
<path d="M178.88 81.53L173.81 81.73L169.77 84.8L169.12 81.17L164.82 79.84L169.49 77.4L170.87 73.52L174.4 75.64L179.56 74.56L177.08 78.31L178.88 81.53Z" fill="#FFD878"/>
<path d="M235.15 55.3002L231.76 55.4302L229.05 57.4802L228.62 55.0502L225.74 54.1602L228.86 52.5302L229.79 49.9302L232.15 51.3502L235.6 50.6302L233.94 53.1402L235.15 55.3002Z" fill="#FFD878"/>
<path d="M128.56 56.64L125.17 56.77L122.46 58.83L122.03 56.4L119.15 55.51L122.27 53.88L123.2 51.28L125.56 52.7L129.01 51.97L127.35 54.49L128.56 56.64Z" fill="#FFD878"/>
<path d="M251.54 61.8802L249.51 61.9602L247.9 63.1802L247.64 61.7302L245.92 61.2102L247.79 60.2302L248.34 58.6802L249.75 59.5302L251.81 59.1002L250.82 60.6002L251.54 61.8802Z" fill="#FFD878"/>
<path d="M175.42 65.3902L173.39 65.4702L171.78 66.6902L171.52 65.2402L169.81 64.7102L171.67 63.7402L172.22 62.1902L173.63 63.0402L175.69 62.6002L174.7 64.1002L175.42 65.3902Z" fill="#FFD878"/>
<path d="M251.56 116.86L246.52 115.17L241.94 117.88L241.99 112.56L238 109.05L243.07 107.45L245.18 102.56L248.27 106.9L253.57 107.4L250.4 111.67L251.56 116.86Z" fill="#FFD878"/>
<path d="M261.52 161.96L256.47 160.26L251.9 162.98L251.95 157.65L247.95 154.14L253.03 152.54L255.14 147.66L258.22 151.99L263.52 152.49L260.35 156.76L261.52 161.96Z" fill="#FFD878"/>
<path d="M251.44 198.55L246.4 196.85L241.82 199.57L241.87 194.25L237.88 190.73L242.96 189.14L245.06 184.25L248.15 188.59L253.45 189.08L250.28 193.35L251.44 198.55Z" fill="#FFD878"/>
<path d="M247.83 88.6401L246.04 88.0401L244.42 89.0001L244.44 87.1201L243.02 85.8701L244.82 85.3001L245.57 83.5701L246.66 85.1101L248.54 85.2801L247.42 86.8001L247.83 88.6401Z" fill="#FFD878"/>
<path d="M201.72 194.71L199.93 194.11L198.31 195.08L198.33 193.19L196.91 191.94L198.71 191.38L199.46 189.64L200.55 191.18L202.43 191.36L201.31 192.87L201.72 194.71Z" fill="#FFD878"/>
<path d="M267.13 122.45L265.34 121.84L263.72 122.81L263.73 120.92L262.32 119.67L264.12 119.11L264.87 117.37L265.96 118.91L267.84 119.09L266.71 120.6L267.13 122.45Z" fill="#FFD878"/>
<path d="M264.37 91.36L262.58 90.76L260.95 91.72L260.97 89.83L259.56 88.59L261.36 88.02L262.1 86.29L263.2 87.82L265.08 88L263.95 89.52L264.37 91.36Z" fill="#FFD878"/>
<path d="M250.59 138.8L248.81 138.19L247.18 139.16L247.2 137.27L245.78 136.02L247.58 135.46L248.33 133.72L249.43 135.26L251.31 135.44L250.18 136.95L250.59 138.8Z" fill="#FFD878"/>
<path d="M252.33 212.58L250.54 211.98L248.92 212.94L248.93 211.05L247.52 209.81L249.32 209.24L250.07 207.51L251.16 209.05L253.04 209.22L251.91 210.74L252.33 212.58Z" fill="#FFD878"/>
<path d="M193.7 136.39L191.91 135.78L190.29 136.75L190.31 134.86L188.89 133.61L190.69 133.05L191.44 131.31L192.53 132.85L194.41 133.03L193.29 134.54L193.7 136.39Z" fill="#FFD878"/>
<path d="M182.46 131.25L180.67 130.65L179.04 131.62L179.06 129.73L177.64 128.48L179.45 127.92L180.19 126.18L181.29 127.72L183.17 127.9L182.04 129.41L182.46 131.25Z" fill="#FFD878"/>
<path d="M126.43 72.9401C123.49 71.4901 120.53 70.0901 117.58 68.6801C114.94 67.4201 112.19 65.6101 109.28 65.1501C107.69 64.9001 106.17 66.7701 107.57 68.0901C109.73 70.1201 112.72 71.1701 115.35 72.4801C118.28 73.9401 121.21 75.4101 124.16 76.8301C126.75 78.0801 129.04 74.2301 126.43 72.9401Z" fill="#8FB73A"/>
<path d="M235.53 71.7001C229.71 73.4201 223.85 75.0201 218.07 76.8501C210.02 79.4001 208.5 79.0201 211.86 87.0501C219.54 83.6701 229.75 80.1401 238.07 79.0401C238.81 78.9401 240.54 70.2101 235.53 71.6901V71.7001Z" fill="#AED164"/>
<path d="M214.03 22.5001C213.87 21.8001 212.86 21.3001 212.24 21.7701C209.86 23.5801 209.35 26.2601 208.03 28.8901C206.22 32.5101 204.1 35.9701 201.66 39.1901C199.37 42.2101 196.79 45.0001 193.99 47.5401C191.16 50.1101 187.77 52.1501 185.26 55.0201C184.58 55.7901 185.22 57.0601 186.29 56.7801C193.57 54.8501 200.1 47.4601 204.63 41.7801C206.99 38.8301 209.13 35.6801 210.91 32.3501C212.5 29.3801 214.8 25.9201 214.04 22.4901L214.03 22.5001Z" fill="#AED164"/>
<path d="M209.69 12.7001C208.92 12.7301 208.04 13.3901 208.13 14.2601C208.14 14.3701 208.15 14.4801 208.16 14.5901C208.24 15.3801 208.8 16.1501 209.68 16.1101C210.57 16.0701 211.12 15.4401 211.2 14.5901C211.21 14.4801 211.22 14.3701 211.23 14.2601C211.31 13.4501 210.45 12.6701 209.67 12.7001H209.69Z" fill="#AED164"/>
<path d="M326.75 170.91L319.96 199.86L318.63 205.54L309.35 245.15L308.09 250.51L299.08 288.96L267.81 281.94L263.63 281L234.41 274.44L230.32 273.52L214.62 270L210.89 251.43L210.24 248.23L205.17 222.99L204.53 219.8L200.43 199.41L199.94 196.99L197.13 183.02L196.45 179.65L193.2 163.46L192.57 160.34L189.81 146.6L206.85 149.62L211.15 150.39L228.17 153.41L232.81 154.23H232.82L251.78 157.6L255.75 158.31L281.96 162.96L286.82 163.82L316.11 169.02L319.94 169.7L326.76 170.91H326.75Z" fill="#BF2525"/>
<path d="M211.14 150.39C207.25 153.04 203.24 155.52 199.47 158.37C197.32 160 195.25 161.72 193.19 163.46L192.56 160.34C196.99 156.36 201.89 152.67 206.84 149.62L211.14 150.39Z" fill="#D93D2A"/>
<path d="M232.8 154.23C227.78 157.98 222.71 161.68 217.84 165.59C210.8 171.24 204.07 177.27 197.12 183.02L196.44 179.65C202.83 173.76 209.69 168.28 216.42 162.86C220.28 159.74 224.18 156.52 228.16 153.41L232.8 154.23Z" fill="#D93D2A"/>
<path d="M255.74 158.31C254.13 159.48 252.53 160.65 250.96 161.84C244.88 166.45 238.79 171.03 232.69 175.6C221.98 183.6 211.28 191.6 200.42 199.41L199.93 196.99C209.74 189.31 219.68 181.79 229.63 174.27C235.71 169.68 241.8 165.1 247.91 160.55C249.2 159.59 250.49 158.6 251.77 157.6L255.74 158.31Z" fill="#D93D2A"/>
<path d="M286.81 163.82C282.52 166.54 278.17 169.16 274.14 171.95C265.03 178.23 256 184.62 247.06 191.13C232.87 201.45 218.95 212.14 205.16 222.99L204.52 219.8C217.15 209.57 230.07 199.71 243.18 190.1C252.36 183.38 261.63 176.79 271.02 170.36C274.65 167.87 278.29 165.4 281.95 162.96L286.81 163.82Z" fill="#D93D2A"/>
<path d="M319.93 169.7C312.43 175.56 304.05 180.36 296.16 185.68C287.71 191.38 279.34 197.2 271.1 203.19C256.91 213.49 229.49 236.05 210.88 251.43L210.23 248.23C228.1 232.92 253.82 211.63 267.13 201.87C275.84 195.48 284.68 189.25 293.66 183.24C300.95 178.35 308.28 173.09 316.1 169.02L319.93 169.7Z" fill="#D93D2A"/>
<path d="M319.96 199.87L318.63 205.54C314.97 208.58 311.27 211.57 307.58 214.57C299.9 220.84 292.18 227.08 284.48 233.33C272.49 243.05 250.87 261.56 234.41 274.44L230.32 273.52C246.59 259.41 270.75 240.14 283.64 229.69C291.6 223.23 299.55 216.77 307.53 210.34C311.47 207.17 315.6 203.2 319.96 199.87Z" fill="#D93D2A"/>
<path d="M309.35 245.15L308.09 250.51C306.56 251.64 305.04 252.74 303.64 253.86C299 257.56 294.35 261.23 289.67 264.88C282.43 270.5 275.31 276.56 267.81 281.94L263.63 281C271.62 273.99 280.45 267.75 288.79 261.22C293.31 257.68 297.87 254.19 302.44 250.7C304.7 248.97 306.97 246.95 309.35 245.15Z" fill="#D93D2A"/>
<path d="M403.46 141.09L325.58 170.91L286.28 163.93H286.27L276.56 162.21H276.55L259.47 159.18H259.42L250.28 157.54H250.27L228.26 153.63H228.25L224.07 152.89L211.7 150.69H211.69L206.97 149.86L188.63 146.6L226.34 134.03L243.88 128.19L278.95 116.5L297.13 120.09L306.78 122L325.61 125.72H325.62L336.94 127.95H336.95L354.31 131.39C354.31 131.39 354.31 131.38 354.33 131.39L365.96 133.68H365.98L403.46 141.09Z" fill="#F04832"/>
<path d="M340.11 163.58C330.73 165.03 321.25 165.34 311.88 166.66C310.49 166.86 310.94 168.91 312.19 168.98C321.7 169.57 331.54 168 340.93 166.55C342.89 166.25 342.06 163.26 340.11 163.57V163.58Z" fill="#F77261"/>
<path d="M359.54 156.38C345.7 157.8 331.86 159.23 318.01 160.64C311.09 161.34 304.17 162.05 297.24 162.72C293.63 163.07 289.96 163.57 286.28 163.93H286.27L276.56 162.21C282.95 160.7 289.73 160.48 296.25 159.8C303.17 159.09 310.1 158.41 317.02 157.72C331.19 156.31 345.37 154.93 359.54 153.55C361.37 153.37 361.34 156.2 359.54 156.38Z" fill="#F77261"/>
<path d="M390.31 143.02C367.35 146.68 344.05 148.82 320.97 151.67C309.16 153.13 297.36 154.59 285.55 156.01C276.95 157.05 268.19 158.5 259.47 159.18H259.42L250.28 157.54C261.4 154.75 273.2 153.94 284.56 152.51C296.04 151.06 307.52 149.63 319 148.21C342.57 145.3 366.19 141.6 389.84 139.52C391.84 139.34 392.28 142.7 390.31 143.02Z" fill="#F77261"/>
<path d="M365.96 133.68C342.45 135.53 318.99 138.16 295.66 141.63C273.07 144.99 250.75 149.73 228.26 153.63H228.25L224.07 152.89C224.07 152.43 224.31 151.98 224.92 151.82C248.37 145.47 272.7 141.7 296.72 138.18C315.85 135.37 335.05 133.11 354.31 131.39C354.31 131.39 354.31 131.38 354.33 131.39L365.96 133.68Z" fill="#F77261"/>
<path d="M336.94 127.95C326.66 129.94 316.05 130.83 305.72 132.44C294.74 134.15 283.79 136.01 272.86 138.02C261.61 140.08 250.39 142.31 239.21 144.69C230.1 146.63 220.94 149.27 211.7 150.69H211.69L206.97 149.86C207.03 149.37 207.31 148.9 207.81 148.71C218.41 144.78 230.11 143.01 241.15 140.68C252.02 138.39 262.92 136.25 273.85 134.25C285.1 132.2 296.37 130.3 307.68 128.57C313.6 127.66 319.6 126.57 325.61 125.72H325.62L336.94 127.95Z" fill="#F77261"/>
<path d="M306.78 122C292.45 124.31 278.14 126.62 263.78 128.74C256.33 129.84 248.88 130.92 241.41 131.94C236.56 132.6 231.39 133.69 226.34 134.03L243.88 128.19C250.54 127.25 257.19 126.28 263.84 125.29C274.94 123.63 286.05 121.93 297.13 120.09L306.78 122Z" fill="#F77261"/>
<path d="M392.61 144.97C386.85 146.06 381.97 149.59 376.56 151.73C368.58 154.89 360.09 157.1 351.95 159.86C345.61 162.01 339.3 164.19 333.01 166.46C330.12 167.5 327.17 168.14 324.97 170.1C285.94 163.96 247.23 154.89 208.01 150.23C207.51 150.17 207.49 150.9 207.9 151.05C227.14 158.31 247.59 161.48 267.77 165.07C286.22 168.35 304.74 171.33 323.14 174.88C321.78 180.95 321.07 187.26 319.79 193.34C318.15 201.14 316.48 208.94 314.83 216.74C311.69 231.54 308.49 246.45 306.55 261.45C306.46 262.16 307.57 262.26 307.76 261.61C312.37 246.33 315.63 230.56 318.98 214.95C320.55 207.65 322.14 200.36 323.68 193.05C324.88 187.38 326.46 181.23 326.58 175.3C328 174.97 328.79 173.45 328.62 172.17C338.48 167.72 349.39 164.72 359.5 161.06C365.58 158.86 371.4 156.1 377.44 153.8C382.87 151.73 388.57 150.31 393.68 147.49C395.12 146.69 394.09 144.67 392.61 144.95V144.97Z" fill="#F77261"/>
<path d="M239.22 275.64C234.55 236.03 236.22 192.06 238.65 152.25C238.08 152.34 237.51 152.44 236.95 152.53C250.29 145.81 264.36 140.52 278.83 136.8L306.56 145.49C292.09 149.21 278.02 154.5 264.68 161.22C265.25 161.13 265.82 161.03 266.38 160.94C263.95 200.75 262.28 242.2 266.95 281.81L239.22 275.64Z" fill="#D6C48B"/>
<path d="M319.68 143.86C308.79 144.64 297.79 148.17 287.05 144.75C280.81 142.76 273.79 142.09 267.36 140.8C254.39 138.2 240.9 136.35 228.17 132.83C235.49 127.93 247.56 126.9 256.09 127.56C278.02 129.25 299.65 134.79 319.69 143.86H319.68Z" fill="#E2D4A7"/>
<path d="M403.2 141.09L402.19 144.37L401.08 147.95L390.1 183.54L388.82 187.66V187.67L377.89 223.09V223.1L376.18 228.61V228.62L365.17 264.29L316.01 282.64L311.33 284.39L299.08 288.96L326.75 170.91L403.2 141.09Z" fill="#D93D2A"/>
<path d="M402.19 144.37L401.08 147.95C395.9 152.36 389.77 155.96 384.25 159.83C377.29 164.72 370.32 169.61 363.36 174.5C349.59 184.16 336.03 195.22 321.3 203.37C320.46 203.83 319.49 202.67 320.25 202C332.52 191.28 347.01 182.57 360.34 173.21C367.31 168.33 374.27 163.44 381.24 158.55C388.02 153.8 394.75 148.03 402.19 144.37Z" fill="#F04832"/>
<path d="M390.1 183.54L388.82 187.66C377.14 195.54 365.67 203.72 354.43 212.21C339.96 223.14 326.42 235.27 311.97 246.19C311.05 246.88 310.01 245.4 310.77 244.64C323.39 232.06 338.12 221.17 352.31 210.43C364.64 201.09 377.25 192.13 390.1 183.54Z" fill="#F04832"/>
<path d="M377.89 223.1L376.18 228.61C374.54 229.86 372.82 231.04 371.27 232.28C368.41 234.55 365.57 236.85 362.75 239.18C357.13 243.84 351.59 248.62 346.16 253.51C335.78 262.85 326.3 273.21 316.01 282.64L311.33 284.39C311.3 284.11 311.38 283.8 311.6 283.52C321.22 271.15 333.55 260.38 345.19 249.96C351.09 244.67 357.1 239.53 363.23 234.51C367.76 230.82 372.58 225.92 377.89 223.1Z" fill="#F04832"/>
<path d="M301.08 146.35C312.74 148.94 324.4 151.52 336.06 154.11C345.83 156.28 356.28 155.46 365.1 160.09C364.72 160.03 364.36 159.93 364 159.79C370.44 157.21 376.88 154.63 383.32 152.05C365 147.49 345.71 145.61 327.06 142.64C322.43 141.9 317.74 141.16 313.09 141.72C308.44 142.28 303.76 144.31 301.03 148.12C301.52 147.76 302.01 147.4 302.5 147.05" fill="#ECE1C3"/>
<path d="M363.56 228.08C359.26 241.86 356.23 255.45 351.94 269.23C344.48 272.53 329.9 277.49 330.3 277.31C331.96 276.48 333.53 266.51 334.1 264.47C335.52 259.34 336.94 254.2 338.36 249.07C341.2 238.8 344.04 228.54 346.88 218.27C349.64 208.29 352.4 198.31 355.17 188.33C356.59 183.2 358.01 178.06 359.43 172.93C360.4 169.41 360.91 162.61 363.26 159.79C367.86 154.3 377.76 154.74 384.04 152.35C381.73 158.56 381.49 163.7 380.12 170.04C378.76 176.28 376.87 182.38 375.24 188.55C371.74 201.85 367.53 214.92 363.56 228.08Z" fill="#ECE1C3"/>
<path d="M267.21 96.6599C268.6 105.7 269.98 114.74 271.37 123.78Z" fill="#00B2C5"/>
<path d="M290.69 86.5099C292.73 89.4099 293.86 92.8499 294.89 96.2399C299.92 112.79 303.33 129.83 305.05 147.04C302.95 148.31 300.08 147.44 298.34 145.7C296.6 143.96 295.73 141.57 294.9 139.25C289.07 122.9 283.24 106.56 277.41 90.2099C274.01 80.6799 286.2 80.0999 290.69 86.4999V86.5099Z" fill="#D6C48B"/>
<path d="M260.56 103.39C259.36 97.8198 260.3 88.5798 265.96 85.2898C268.32 83.9198 272.68 83.4498 275.42 82.8798C277.25 82.4898 285.74 83.2998 286.61 82.5198C276.75 91.4398 283.01 107.04 286.41 117.54C289.8 128.04 295.86 137.01 300.06 147.03C293.2 149.87 279.97 136.39 275.83 132.02C268.31 124.07 262.87 114.11 260.57 103.4L260.56 103.39Z" fill="#ECE1C3"/>
<path d="M343.09 105.53C344.54 100.27 339.25 98.54 335.01 99.34C327.9 100.68 321.29 105.52 316.47 110.71C310.53 117.11 306.27 124.89 302.83 132.92C300.93 137.34 299.31 142.62 301.76 146.76C308.84 143.72 313.42 136.87 317.47 130.31C321.52 123.75 325.8 116.8 332.66 113.28C334.66 112.26 336.81 111.56 338.76 110.45C340.71 109.34 342.5 107.7 343.1 105.54L343.09 105.53Z" fill="#D6C48B"/>
<path d="M353.85 114.77C344.63 130.14 321.27 150.7 301.87 145.62C305.96 139.45 314.22 136.32 319.62 131.29C326.37 125 334.42 117.32 336.56 107.98C337.29 104.78 336.77 101.12 334.48 98.7599C339.49 98.5999 344.53 99.4699 349.19 101.31C352.12 102.46 355.18 104.35 355.87 107.42C356.44 109.96 355.18 112.54 353.84 114.77H353.85Z" fill="#ECE1C3"/>
<path d="M323.03 141.78C319.5 142.18 316.05 143.27 312.56 143.95C308.7 144.71 304.8 145.22 300.91 145.78C300.06 145.9 300.25 147.35 301.11 147.29C308.33 146.82 316.7 145.96 323.37 143.02C323.96 142.76 323.68 141.7 323.03 141.77V141.78Z" fill="#E2D4A7"/>
<path d="M265.86 159.28C262.17 157.36 257.77 156.87 253.74 155.93C249.17 154.87 244.57 153.61 239.93 152.94C238.06 152.67 237.25 155.21 239.13 155.83C243.58 157.31 248.25 158.23 252.8 159.33C256.83 160.3 261.02 161.86 265.18 161.79C266.46 161.77 267.08 159.92 265.86 159.28Z" fill="#ECE1C3"/>
<path d="M381.85 150.97C378.54 150.95 375.79 153.48 372.64 154.53C369.21 155.68 365.59 156.27 362.2 157.49C361.09 157.89 361.18 159.69 362.49 159.65C366.17 159.54 369.9 158.37 373.39 157.26C375.11 156.71 376.77 155.93 378.5 155.42C380.66 154.77 381.41 155.12 382.86 153.41C383.64 152.49 383.15 150.98 381.85 150.97Z" fill="#FFFCF5"/>
<path d="M344.13 115.09C340.07 122.76 334.77 128.14 328.28 133.78C327.26 134.67 328.56 136.01 329.63 135.53C337.31 132.05 343.68 124.42 347 116.77C347.83 114.86 345.15 113.15 344.13 115.09Z" fill="#FFFCF5"/>
<path d="M346.85 106.66C345.75 106.66 344.7 107.62 344.75 108.76C344.8 109.9 345.67 110.86 346.85 110.86C347.95 110.86 349 109.9 348.95 108.76C348.9 107.62 348.03 106.66 346.85 106.66Z" fill="#FFFCF5"/>
<path d="M283.41 116.12C282.48 111.6 279.56 107.66 278.53 103.03C277.41 97.9799 277.55 92.9399 277.82 87.8099C277.88 86.6399 276.14 86.4599 275.82 87.5399C274.31 92.5999 274.32 97.8899 275.29 103.07C276.14 107.62 277.8 114.21 281.59 117.18C282.44 117.84 283.64 117.25 283.41 116.12Z" fill="#FFFCF5"/>
<path d="M167.01 279.98L188.95 170.86L67.8401 192.36L92.3101 296.76L167.01 279.98Z" fill="#8FB73A"/>
<path d="M189.98 170.86L110.11 144.24L0 165.99L68.88 192.36L189.98 170.86Z" fill="#A4CC4B"/>
<path d="M145.24 283.86C149.37 248.83 147.89 211.06 145.74 175.85C146.24 175.93 146.74 176.02 147.25 176.1C135.45 170.15 123.01 165.48 110.21 162.19L85.6899 169.87C98.4899 173.16 110.93 177.84 122.73 183.78C122.23 183.7 121.73 183.61 121.22 183.53C123.37 218.74 124.85 256.51 120.72 291.54L145.24 283.86Z" fill="#D93D2A"/>
<path d="M74.0901 168.44C83.7201 169.13 93.4501 172.25 102.95 169.23C108.47 167.47 114.68 166.88 120.37 165.74C131.84 163.44 143.77 161.81 155.03 158.69C148.55 154.36 137.88 153.45 130.34 154.03C110.95 155.52 91.8201 160.43 74.1001 168.45L74.0901 168.44Z" fill="#F04832"/>
<path d="M0.22998 165.99L33.87 274.94L92.31 296.76L67.84 192.36L0.22998 165.99Z" fill="#6A872A"/>
<path d="M9.60001 169.41C14.7 170.37 19.01 173.5 23.79 175.39C30.85 178.18 38.36 180.14 45.55 182.58C51.15 184.48 56.73 186.41 62.3 188.42C64.86 189.34 67.47 189.91 69.41 191.64C103.92 186.21 138.16 178.19 172.84 174.07C173.28 174.02 173.3 174.66 172.94 174.8C155.92 181.22 137.84 184.03 119.99 187.2C103.67 190.1 87.29 192.73 71.02 195.88C72.22 201.25 72.85 206.83 73.98 212.2C75.43 219.1 76.91 225.99 78.37 232.89C81.15 245.98 83.98 259.16 85.69 272.43C85.77 273.06 84.79 273.14 84.62 272.58C80.54 259.07 77.66 245.12 74.7 231.32C73.31 224.87 71.91 218.42 70.54 211.96C69.48 206.95 68.09 201.51 67.97 196.26C66.72 195.97 66.01 194.62 66.17 193.49C57.45 189.56 47.8 186.91 38.87 183.67C33.49 181.72 28.35 179.29 23.01 177.25C18.21 175.42 13.17 174.17 8.65001 171.67C7.37001 170.96 8.28001 169.18 9.60001 169.43V169.41Z" fill="#B4D66D"/>
<path d="M90.5401 170.63C80.2301 172.92 69.9201 175.2 59.6101 177.49C50.9701 179.41 41.7301 178.68 33.9301 182.78C34.2601 182.73 34.5801 182.64 34.9001 182.52C29.2001 180.24 23.5101 177.96 17.8101 175.67C34.0101 171.64 51.0701 169.98 67.5601 167.34C71.6501 166.69 75.8001 166.03 79.9201 166.52C84.0301 167.01 88.1701 168.81 90.5801 172.18C90.1501 171.86 89.7201 171.55 89.2801 171.23" fill="#F04832"/>
<path d="M35.2899 242.91C38.9799 255.13 41.6699 266.51 45.4699 278.7C51.8799 281.53 58.2899 284.37 64.6899 287.2C63.2299 286.47 61.8399 276.9 61.3399 275.1C60.0799 270.56 58.8299 266.02 57.5699 261.48C55.0599 252.4 52.5399 243.32 50.0299 234.25C47.5899 225.42 45.1399 216.6 42.6999 207.77C41.4399 203.23 40.1899 198.69 38.9299 194.15C38.0699 191.04 37.6199 185.02 35.5399 182.53C31.4699 177.67 22.7099 178.06 17.1599 175.95C19.1999 181.44 19.4099 185.99 20.6299 191.59C21.8299 197.11 23.4999 202.5 24.9399 207.96C28.0499 219.75 31.7899 231.37 35.2699 242.92L35.2899 242.91Z" fill="#BF2525"/>
<path d="M120.49 126.7C119.26 134.69 118.04 142.69 116.81 150.68Z" fill="#E6369F"/>
<path d="M99.72 117.72C97.92 120.29 96.92 123.32 96.01 126.33C91.56 140.96 88.55 156.03 87.03 171.25C88.89 172.37 91.42 171.6 92.96 170.07C94.5 168.53 95.27 166.41 96 164.37C101.15 149.91 106.31 135.46 111.46 121C114.47 112.57 103.69 112.06 99.72 117.72Z" fill="#BF2525"/>
<path d="M126.37 132.65C127.43 127.72 126.6 119.55 121.59 116.64C119.5 115.42 115.64 115.02 113.23 114.51C111.61 114.17 104.1 114.88 103.34 114.19C112.06 122.07 106.52 135.88 103.52 145.16C100.52 154.44 95.17 162.38 91.45 171.24C97.52 173.75 109.21 161.83 112.88 157.96C119.53 150.93 124.34 142.13 126.37 132.65Z" fill="#F04832"/>
<path d="M53.39 134.54C52.1 129.89 56.79 128.36 60.53 129.07C66.82 130.26 72.66 134.53 76.93 139.12C82.18 144.78 85.95 151.66 88.99 158.76C90.67 162.67 92.1 167.34 89.94 171C83.68 168.31 79.63 162.25 76.05 156.45C72.47 150.65 68.68 144.5 62.62 141.39C60.86 140.48 58.95 139.87 57.22 138.89C55.49 137.91 53.91 136.46 53.38 134.55L53.39 134.54Z" fill="#D93D2A"/>
<path d="M43.88 142.71C52.04 156.3 72.7 174.49 89.85 169.99C86.23 164.53 78.92 161.76 74.15 157.32C68.18 151.76 61.06 144.97 59.17 136.71C58.52 133.88 58.98 130.64 61.01 128.56C56.58 128.42 52.12 129.19 48 130.81C45.41 131.83 42.7 133.5 42.09 136.21C41.59 138.46 42.7 140.73 43.88 142.71Z" fill="#F04832"/>
<path d="M111.39 174.97C107.68 173.81 103.88 173.27 100.06 173.32C98.1901 173.35 94.0901 173.22 97.2401 169.73C97.9801 168.91 99.0201 168.41 100.05 167.99C110.19 163.87 123.62 165.28 133 170.84C143.26 176.93 149.76 188.86 149.32 200.78C149.16 205 148.2 209.16 148.14 213.38C148.07 217.6 149.05 222.11 152.1 225.03C146.23 224.13 141.03 219.77 139.12 214.15C139.27 218.46 139.43 222.77 139.58 227.08C134.21 226.83 129.92 222.11 128.3 216.99C126.68 211.87 127.11 206.36 127.32 200.99C127.53 195.62 127.44 189.99 124.92 185.24C122.2 180.1 116.94 176.69 111.39 174.96V174.97Z" fill="#BF2525"/>
<path d="M112.36 172.2C108.57 171.32 104.74 171.06 100.93 171.4C99.07 171.57 94.97 171.75 97.85 168.03C98.53 167.15 99.53 166.58 100.52 166.09C110.32 161.22 123.82 161.62 133.59 166.47C144.28 171.77 151.65 183.19 152.1 195.11C152.26 199.33 151.61 203.55 151.86 207.76C152.11 211.97 153.42 216.4 156.68 219.08C150.76 218.63 145.24 214.66 142.92 209.2C143.4 213.49 143.87 217.77 144.35 222.06C138.98 222.21 134.35 217.83 132.35 212.84C130.35 207.85 130.37 202.33 130.18 196.96C129.99 191.59 129.48 185.98 126.61 181.44C123.51 176.52 118.01 173.52 112.35 172.2H112.36Z" fill="#F04832"/>
<path d="M91.7301 169.04C96.8501 165.02 103.87 161.71 111 160.54C111.49 160.29 111.97 160.02 112.44 159.72C114 158.71 115.3 157.45 116.6 156.13C117.05 155.68 117.89 156.28 117.51 156.83C116.69 158 115.6 159.15 114.38 160.14C119.17 159.83 123.88 160.59 127.97 162.87C128.61 163.23 128.18 164.34 127.46 164.08C121.26 161.84 115.15 161.36 108.74 163.12C105.67 163.96 102.72 165.19 99.9001 166.66C97.4701 167.92 95.2201 169.69 92.6001 170.51C91.8001 170.76 91.0301 169.59 91.7401 169.04H91.7301Z" fill="#D93D2A"/>
<path d="M71.1301 166.59C74.2501 166.94 77.3001 167.9 80.3901 168.51C83.8101 169.18 87.2501 169.63 90.7001 170.13C91.4601 170.24 91.2801 171.51 90.5201 171.47C84.1301 171.06 76.7301 170.29 70.8401 167.7C70.3101 167.47 70.5701 166.53 71.1401 166.6L71.1301 166.59Z" fill="#BF2525"/>
<path d="M97.97 213.76C97.4 213.69 96.96 213.89 96.45 214.12C95.03 214.74 95.03 217.26 96.45 217.87C96.96 218.09 97.4 218.29 97.97 218.23C99.13 218.09 100.26 217.3 100.2 216C100.14 214.67 99.21 213.92 97.97 213.77V213.76Z" fill="#B4D66D"/>
<path d="M112.27 234.26C111.2 234.31 110.06 235.19 110.15 236.38C110.15 236.45 110.16 236.52 110.17 236.59C110.26 237.68 111.07 238.74 112.27 238.69C113.48 238.64 114.27 237.77 114.37 236.59C114.37 236.52 114.38 236.45 114.39 236.38C114.48 235.27 113.35 234.22 112.27 234.26Z" fill="#B4D66D"/>
<path d="M99.2301 259.79C97.1601 259.79 97.1501 263.01 99.2301 263.01C101.31 263.01 101.31 259.79 99.2301 259.79Z" fill="#B4D66D"/>
<path d="M169.45 243.47C166.94 243.47 166.93 247.37 169.45 247.37C171.97 247.37 171.97 243.47 169.45 243.47Z" fill="#B4D66D"/>
<path d="M158.87 233.16C158.87 233.16 158.92 233.19 158.95 233.21C157.91 231.95 155.87 233.03 155.87 234.49C155.87 235.95 157.92 237.02 158.95 235.77C158.92 235.79 158.9 235.8 158.87 235.82C159.87 235.26 159.87 233.73 158.87 233.17V233.16Z" fill="#B4D66D"/>
<path d="M171.13 201.7C168.98 201.7 168.98 205.04 171.13 205.04C173.28 205.04 173.28 201.7 171.13 201.7Z" fill="#B4D66D"/>
<path d="M160.85 195.18C160.31 194.25 159.25 194.25 158.71 195.18C158.24 195.99 158.84 197.05 159.78 197.05C160.72 197.05 161.33 196 160.85 195.18Z" fill="#B4D66D"/>
<path d="M55.7699 204C55.6299 202.99 54.9699 202 53.8199 202.05C52.6499 202.1 52.0199 202.91 51.8699 204C51.7999 204.49 51.9399 204.95 52.2099 205.36C53.0199 206.55 54.6099 206.55 55.4199 205.36C55.6999 204.95 55.8299 204.5 55.7599 204H55.7699Z" fill="#B4D66D"/>
<path d="M64.7501 224.91C62.1601 224.91 62.1601 228.93 64.7501 228.93C67.3401 228.93 67.3401 224.91 64.7501 224.91Z" fill="#B4D66D"/>
<path d="M63.4899 251.89C60.9999 251.89 60.9899 255.76 63.4899 255.76C65.9899 255.76 65.9899 251.89 63.4899 251.89Z" fill="#B4D66D"/>
<path d="M35.36 260.08C35.35 260.01 35.33 259.95 35.32 259.88C34.96 258.22 32.31 258.22 31.96 259.88C31.95 259.95 31.93 260.01 31.92 260.08C31.68 261.21 32.44 262.34 33.64 262.34C34.84 262.34 35.61 261.2 35.36 260.08Z" fill="#B4D66D"/>
<path d="M17.24 202.41C14.92 202.41 14.92 206.02 17.24 206.02C19.56 206.02 19.56 202.41 17.24 202.41Z" fill="#B4D66D"/>
<path d="M112.27 195.74C112.2 195.74 112.13 195.74 112.06 195.73C109.8 195.61 109.8 199.36 112.06 199.24C112.13 199.24 112.2 199.24 112.27 199.23C114.51 199.12 114.52 195.86 112.27 195.74Z" fill="#B4D66D"/>
<path d="M78.21 181.6C77.16 181.6 76.15 182.52 76.2 183.61C76.25 184.7 77.08 185.62 78.21 185.62C79.26 185.62 80.27 184.7 80.22 183.61C80.17 182.52 79.34 181.6 78.21 181.6Z" fill="#B4D66D"/>
<path d="M98.3899 178.54C96.7399 178.54 96.7299 181.11 98.3899 181.11C100.05 181.11 100.05 178.54 98.3899 178.54Z" fill="#B4D66D"/>
<path d="M37.8401 168.01C37.8201 167.95 37.8001 167.88 37.7701 167.82C37.2301 166.23 35.0801 166.23 34.5401 167.82C34.5201 167.88 34.5001 167.95 34.4701 168.01C34.1001 169.1 35.0701 170.22 36.1501 170.22C37.2301 170.22 38.2001 169.1 37.8301 168.01H37.8401Z" fill="#B4D66D"/>
<path d="M51.0801 161.59C51.0301 161.56 50.97 161.53 50.92 161.5C49.77 160.87 48.3 161.66 48.3 163.01C48.3 164.36 49.77 165.15 50.92 164.52C50.97 164.49 51.0301 164.46 51.0801 164.43C52.1501 163.84 52.1501 162.18 51.0801 161.59Z" fill="#B4D66D"/>
<path d="M146.04 165.51C145.75 164.99 145.15 164.66 144.56 164.66C144.48 164.66 144.39 164.66 144.31 164.66C142.11 164.68 142.11 168.05 144.31 168.08C144.39 168.08 144.48 168.08 144.56 168.08C145.15 168.08 145.75 167.75 146.04 167.23C146.36 166.64 146.36 166.09 146.04 165.5V165.51Z" fill="#B4D66D"/>
<path d="M161.92 168.97C161.91 168.89 161.89 168.73 161.85 168.45C161.85 168.45 161.85 168.44 161.85 168.43C161.66 167.32 160.49 166.46 159.35 166.83C159 166.94 158.78 167.22 158.47 167.34C158.76 167.1 158.76 167.1 158.47 167.33C158.31 167.43 158.18 167.56 158.08 167.72C157.56 168.39 157.57 169.1 157.71 169.89C157.9 171.01 159.34 171.74 160.38 171.41C161.44 171.07 162.09 170.07 161.93 168.98L161.92 168.97Z" fill="#B4D66D"/>
<path d="M152.57 312.8L137.32 236.95L205.12 251.9L204.49 324.46L152.57 312.8Z" fill="#D6C48B"/>
<path d="M136.4 236.76L190.96 218.91L252.29 232.86L205.49 252.71L136.4 236.76Z" fill="#ECE1C3"/>
<path d="M166.54 316.73C163.67 292.38 164.7 265.35 166.19 240.88C165.84 240.94 165.49 241 165.14 241.05C173.34 236.92 181.99 233.67 190.88 231.38L207.93 236.72C199.03 239.01 190.39 242.26 182.19 246.39C182.54 246.33 182.89 246.27 183.24 246.22C181.75 270.69 180.72 296.17 183.59 320.52L166.54 316.73Z" fill="#BA8D1E"/>
<path d="M215.99 235.73C209.3 236.21 202.54 238.38 195.93 236.28C192.09 235.06 187.78 234.64 183.82 233.85C175.84 232.25 167.55 231.12 159.73 228.95C164.23 225.94 171.65 225.31 176.89 225.71C190.37 226.75 203.67 230.16 215.98 235.73H215.99Z" fill="#D9A72A"/>
<path d="M252.13 232.86L243.95 309.76L203.33 324.92L203.96 252.36L252.13 232.86Z" fill="#ECE1C3"/>
<path d="M203.93 237.67L221.69 245.18L220.54 318.5L231.49 314.41L235.27 239.91L211.62 233.86L203.93 237.67Z" fill="#F0C04A"/>
<path d="M183.74 206.72C184.59 212.28 185.44 217.83 186.3 223.39Z" fill="#00B2C5"/>
<path d="M198.18 200.48C199.43 202.27 200.13 204.37 200.76 206.46C203.85 216.63 205.95 227.11 207 237.69C205.71 238.47 203.95 237.94 202.88 236.87C201.81 235.8 201.27 234.33 200.77 232.91L190.02 202.77C187.93 196.91 195.42 196.56 198.18 200.49V200.48Z" fill="#BA8D1E"/>
<path d="M179.66 210.85C178.92 207.42 179.5 201.74 182.98 199.72C184.43 198.88 187.11 198.59 188.79 198.24C189.91 198 195.13 198.5 195.67 198.02C189.61 203.5 193.46 213.09 195.55 219.55C197.64 226 201.36 231.52 203.94 237.68C199.72 239.42 191.59 231.14 189.05 228.45C184.43 223.57 181.08 217.44 179.67 210.86L179.66 210.85Z" fill="#F0C04A"/>
<path d="M230.38 212.17C231.27 208.94 228.02 207.87 225.41 208.36C221.04 209.19 216.98 212.16 214.01 215.35C210.36 219.28 207.74 224.07 205.62 229C204.45 231.72 203.46 234.96 204.96 237.51C209.31 235.64 212.12 231.43 214.61 227.4C217.1 223.37 219.73 219.09 223.95 216.93C225.18 216.3 226.5 215.87 227.7 215.19C228.9 214.51 230 213.5 230.37 212.17H230.38Z" fill="#BA8D1E"/>
<path d="M237 217.85C231.33 227.3 216.97 239.94 205.05 236.81C207.57 233.02 212.64 231.09 215.96 228C220.11 224.14 225.06 219.42 226.37 213.67C226.82 211.7 226.5 209.45 225.09 208C228.17 207.9 231.27 208.44 234.13 209.57C235.93 210.28 237.81 211.44 238.23 213.32C238.58 214.88 237.81 216.46 236.98 217.84L237 217.85Z" fill="#F0C04A"/>
<path d="M190.07 240.27C192.65 239.46 195.29 239.09 197.95 239.12C199.25 239.14 202.1 239.05 199.91 236.63C199.39 236.06 198.67 235.71 197.96 235.42C190.91 232.55 181.58 233.53 175.06 237.4C167.93 241.63 163.41 249.93 163.72 258.21C163.83 261.14 164.5 264.04 164.54 266.97C164.59 269.9 163.91 273.04 161.79 275.07C165.87 274.45 169.49 271.41 170.81 267.51C170.7 270.51 170.6 273.5 170.49 276.5C174.22 276.33 177.2 273.05 178.33 269.48C179.46 265.92 179.16 262.09 179.01 258.36C178.86 254.63 178.93 250.72 180.67 247.42C182.56 243.85 186.22 241.48 190.07 240.27Z" fill="#BA8D1E"/>
<path d="M189.39 238.35C192.02 237.74 194.69 237.56 197.33 237.8C198.62 237.92 201.47 238.04 199.47 235.46C199 234.85 198.3 234.45 197.61 234.11C190.8 230.73 181.42 231 174.62 234.37C167.19 238.06 162.06 245.99 161.75 254.28C161.64 257.21 162.09 260.15 161.92 263.08C161.75 266.01 160.83 269.08 158.57 270.95C162.68 270.63 166.52 267.88 168.13 264.08C167.8 267.06 167.47 270.04 167.14 273.02C170.87 273.12 174.09 270.08 175.48 266.61C176.87 263.14 176.86 259.3 176.99 255.57C177.12 251.84 177.48 247.94 179.47 244.78C181.62 241.36 185.45 239.27 189.38 238.36L189.39 238.35Z" fill="#D9A72A"/>
<path d="M203.73 236.15C200.17 233.35 195.29 231.06 190.33 230.24C189.99 230.06 189.65 229.88 189.33 229.67C188.24 228.97 187.34 228.09 186.44 227.18C186.13 226.87 185.54 227.28 185.81 227.67C186.38 228.48 187.14 229.28 187.99 229.97C184.66 229.76 181.38 230.28 178.55 231.87C178.11 232.12 178.41 232.89 178.9 232.71C183.21 231.15 187.46 230.82 191.91 232.04C194.04 232.63 196.09 233.48 198.06 234.5C199.75 235.38 201.31 236.61 203.14 237.18C203.69 237.35 204.23 236.54 203.74 236.16L203.73 236.15Z" fill="#D9A72A"/>
<path d="M218.06 234.45C215.89 234.7 213.77 235.36 211.62 235.79C209.25 236.26 206.85 236.57 204.46 236.91C203.93 236.99 204.06 237.87 204.59 237.84C209.03 237.55 214.18 237.02 218.27 235.22C218.64 235.06 218.46 234.41 218.06 234.45Z" fill="#F0C04A"/>
<path d="M231.67 217.8C230.28 222.35 227.45 225.61 223.17 227.7C222.13 228.21 222.86 229.97 223.96 229.58C228.85 227.87 232.83 223.52 233.97 218.43C234.3 216.93 232.12 216.32 231.66 217.79L231.67 217.8Z" fill="#FFD878"/>
<path d="M235.14 212.64C235.09 212.58 235.03 212.52 234.98 212.47C234.55 212.04 233.83 212.04 233.4 212.47C233.34 212.52 233.29 212.58 233.24 212.64C232.47 213.49 232.98 214.94 234.19 214.94C235.4 214.94 235.91 213.49 235.14 212.64Z" fill="#FFD878"/>
<path d="M191.42 212.97C190.51 210.26 189.8 207.49 189 204.75C188.63 203.48 186.62 203.69 186.65 205.07C186.75 209.95 187.99 218.05 192.3 221.07C192.85 221.46 193.57 220.93 193.59 220.33C193.65 217.8 192.21 215.34 191.42 212.98V212.97Z" fill="#FFD878"/>
<path d="M187.69 199.64C187.58 199.64 187.47 199.65 187.36 199.66C186.16 199.72 186.16 201.46 187.36 201.52C187.47 201.52 187.58 201.53 187.69 201.54C188.91 201.6 188.91 199.58 187.69 199.64Z" fill="#FFD878"/>
<path d="M230.75 239.44C228.76 240.31 226.76 241.17 224.77 242.05C223.18 242.76 221.15 243.33 220.35 244.98C220.1 245.5 220.31 246.09 220.88 246.27C222.64 246.84 224.44 245.78 226.06 245.11C228.07 244.28 230.07 243.43 232.08 242.59C234.35 241.64 233.06 238.43 230.75 239.44Z" fill="#FFD878"/>
<path d="M124.4 123.67C123.98 122.31 121.94 122.56 121.91 124.01C121.76 133.26 120.68 140.99 115.04 148.72C114.52 149.44 115.63 150.22 116.24 149.64C122.83 143.36 127.19 132.78 124.4 123.67Z" fill="#F77261"/>
<path d="M119.5 119.26C119.1 117.47 116.28 117.47 115.88 119.26C115.82 119.53 115.76 119.82 115.79 120.09C115.89 121.07 116.59 122.04 117.69 121.99C118.8 121.94 119.48 121.15 119.59 120.09C119.62 119.81 119.56 119.53 119.5 119.26Z" fill="#F77261"/>
<path d="M127.7 168.95C126.39 168.65 125.72 170.33 126.81 171.07C130.89 173.87 134.76 176.42 137.48 180.69C140 184.64 140.63 188.98 142.01 193.35C142.29 194.24 143.66 194.33 143.91 193.35C146.34 183.64 137.09 171.08 127.7 168.95Z" fill="#F77261"/>
<path d="M65.3999 153.85C63.2699 150.99 60.8199 148.45 59.0899 145.29C57.3699 142.16 57.0299 138.39 55.2299 135.4C54.6399 134.42 52.8799 134.5 52.6399 135.74C51.9099 139.39 53.9099 143.5 55.6199 146.67C57.4899 150.16 60.0799 153.68 63.5599 155.69C64.6499 156.32 66.2499 154.98 65.3999 153.85Z" fill="#F77261"/>
</g>
<defs>
<clipPath id="clip0_386_156">
<rect width="403" height="265" fill="white"/>
</clipPath>
</defs>
</svg>
