<svg width="158" height="49" viewBox="0 0 158 49" fill="none" xmlns="http://www.w3.org/2000/svg">
<path d="M83.5281 12.269C83.5281 14.0287 82.1016 15.4463 80.3308 15.4463C78.56 15.4463 77.1336 14.0287 77.1336 12.269C77.1336 10.5093 78.5108 9.0918 80.3308 9.0918C82.1508 9.14068 83.5281 10.5582 83.5281 12.269ZM70.3455 18.6724V19.4545C70.3455 19.4545 68.8207 17.4993 65.5742 17.4993C60.2126 17.4993 56.0316 21.5564 56.0316 27.1776C56.0316 32.75 60.1634 36.856 65.5742 36.856C68.8698 36.856 70.3455 34.8519 70.3455 34.8519V35.6829C70.3455 36.0739 70.6406 36.3672 71.0342 36.3672H75.0184V17.9881H71.0342C70.6406 17.9881 70.3455 18.3302 70.3455 18.6724ZM70.3455 30.4526C69.6077 31.528 68.132 32.4567 66.3612 32.4567C63.2131 32.4567 60.8029 30.5015 60.8029 27.1776C60.8029 23.8538 63.2131 21.8985 66.3612 21.8985C68.0828 21.8985 69.6569 22.8761 70.3455 23.9026V30.4526ZM77.9698 17.9881H82.6919V36.3672H77.9698V17.9881ZM148.507 17.4993C145.26 17.4993 143.735 19.4545 143.735 19.4545V9.14068H139.013V36.3672H142.997C143.391 36.3672 143.686 36.025 143.686 35.6829V34.8519C143.686 34.8519 145.211 36.856 148.457 36.856C153.819 36.856 158 32.75 158 27.1776C158 21.6052 153.819 17.4993 148.507 17.4993ZM147.72 32.4079C145.9 32.4079 144.473 31.4791 143.735 30.4038V23.8538C144.473 22.8761 146.047 21.8496 147.72 21.8496C150.868 21.8496 153.278 23.8049 153.278 27.1288C153.278 30.4526 150.868 32.4079 147.72 32.4079ZM136.554 25.4668V36.4161H131.832V26.0045C131.832 22.9739 130.848 21.7519 128.192 21.7519C126.765 21.7519 125.289 22.4851 124.355 23.5605V36.3672H119.633V17.9881H123.371C123.765 17.9881 124.06 18.3302 124.06 18.6724V19.4545C125.437 18.037 127.257 17.4993 129.077 17.4993C131.143 17.4993 132.864 18.0858 134.242 19.259C135.914 20.6276 136.554 22.3873 136.554 25.4668ZM108.172 17.4993C104.925 17.4993 103.4 19.4545 103.4 19.4545V9.14068H98.6783V36.3672H102.663C103.056 36.3672 103.351 36.025 103.351 35.6829V34.8519C103.351 34.8519 104.876 36.856 108.123 36.856C113.484 36.856 117.665 32.75 117.665 27.1776C117.714 21.6052 113.533 17.4993 108.172 17.4993ZM107.385 32.4079C105.565 32.4079 104.138 31.4791 103.4 30.4038V23.8538C104.138 22.8761 105.712 21.8496 107.385 21.8496C110.533 21.8496 112.943 23.8049 112.943 27.1288C112.943 30.4526 110.533 32.4079 107.385 32.4079ZM94.5956 17.4993C96.0221 17.4993 96.7599 17.7437 96.7599 17.7437V22.094C96.7599 22.094 92.8248 20.7743 90.3654 23.5605V36.4161H85.6432V17.9881H89.6275C90.021 17.9881 90.3162 18.3302 90.3162 18.6724V19.4545C91.2016 18.428 93.1199 17.4993 94.5956 17.4993ZM45.5543 34.7053C45.3084 34.1187 45.0625 33.4832 44.8165 32.9456C44.423 32.0657 44.0295 31.2347 43.6852 30.4526L43.636 30.4038C40.242 23.0717 36.602 15.6418 32.7653 8.30971L32.6177 8.01643C32.2242 7.28322 31.8307 6.50112 31.4372 5.71903C30.9453 4.83918 30.4534 3.91045 29.6664 3.0306C28.0923 1.07537 25.8296 0 23.4194 0C20.9599 0 18.7464 1.07537 17.1232 2.93284C16.3854 3.81269 15.8443 4.74142 15.3524 5.62127C14.9589 6.40336 14.5654 7.18545 14.1719 7.91866L14.0243 8.21195C10.2368 15.544 6.54762 22.9739 3.15359 30.306L3.1044 30.4038C2.76008 31.1858 2.36657 32.0168 1.97306 32.8967C1.72711 33.4344 1.48117 34.0209 1.23522 34.6564C0.595768 36.465 0.399013 38.1758 0.644957 39.9355C1.18603 43.6015 3.64547 46.681 7.0395 48.0497C8.31841 48.5874 9.64651 48.8318 11.0238 48.8318C11.4173 48.8318 11.9092 48.7829 12.3027 48.734C13.9259 48.5385 15.5984 48.0008 17.2216 47.0721C19.2383 45.9478 21.1567 44.3347 23.321 41.9885C25.4853 44.3347 27.4529 45.9478 29.4204 47.0721C31.0436 48.0008 32.7161 48.5385 34.3393 48.734C34.7328 48.7829 35.2247 48.8318 35.6182 48.8318C36.9955 48.8318 38.3728 48.5874 39.6025 48.0497C43.0457 46.681 45.456 43.5526 45.997 39.9355C46.3906 38.2247 46.1938 36.5138 45.5543 34.7053ZM23.3702 37.247C20.714 33.9232 18.9924 30.7948 18.4021 28.1552C18.1562 27.031 18.107 26.0534 18.2546 25.1735C18.3529 24.3914 18.6481 23.7071 19.0416 23.1205C19.9762 21.8008 21.5502 20.9698 23.3702 20.9698C25.1902 20.9698 26.8134 21.7519 27.6988 23.1205C28.0923 23.7071 28.3874 24.3914 28.4858 25.1735C28.6334 26.0534 28.5842 27.0799 28.3383 28.1552C27.748 30.7459 26.0264 33.8743 23.3702 37.247ZM42.9965 39.5444C42.6522 42.0862 40.9306 44.2859 38.5203 45.2635C37.3398 45.7523 36.0609 45.8989 34.782 45.7523C33.5523 45.6056 32.3226 45.2146 31.0436 44.4814C29.2729 43.5038 27.5021 41.9885 25.4361 39.74C28.6826 35.7806 30.6501 32.1635 31.388 28.9373C31.7323 27.422 31.7815 26.0534 31.6339 24.7825C31.4372 23.5605 30.9945 22.4362 30.3058 21.4586C28.781 19.259 26.2231 17.9881 23.3702 17.9881C20.5172 17.9881 17.9594 19.3079 16.4346 21.4586C15.7459 22.4362 15.3032 23.5605 15.1065 24.7825C14.9097 26.0534 14.9589 27.4709 15.3524 28.9373C16.0902 32.1635 18.107 35.8295 21.3043 39.7888C19.2875 42.0373 17.4675 43.5527 15.6967 44.5303C14.4178 45.2635 13.1881 45.6545 11.9584 45.8012C10.6303 45.9478 9.35138 45.7523 8.22004 45.3124C5.80978 44.3347 4.08817 42.1351 3.74385 39.5933C3.59629 38.3713 3.69466 37.1493 4.18655 35.7806C4.33412 35.2918 4.58006 34.803 4.82601 34.2164C5.17033 33.4344 5.56384 32.6034 5.95735 31.7724L6.00654 31.6747C9.40057 24.3914 13.0405 16.9616 16.8281 9.72725L16.9756 9.43396C17.3692 8.70075 17.7627 7.91866 18.1562 7.18545C18.5497 6.40336 18.9924 5.67015 19.5335 5.03471C20.5664 3.86157 21.9437 3.22612 23.4686 3.22612C24.9934 3.22612 26.3707 3.86157 27.4037 5.03471C27.9447 5.67015 28.3874 6.40336 28.781 7.18545C29.1745 7.91866 29.568 8.70075 29.9615 9.43396L30.1091 9.72725C33.8474 17.0105 37.4874 24.4403 40.8814 31.7235V31.7724C41.2749 32.5545 41.6192 33.4344 42.0127 34.2164C42.2587 34.803 42.5046 35.2918 42.6522 35.7806C43.0457 37.0515 43.1933 38.2735 42.9965 39.5444Z" fill="#585E67" fill-opacity="0.5"/>
</svg>
