<svg width="165" height="31" viewBox="0 0 165 31" fill="none" xmlns="http://www.w3.org/2000/svg">
<path d="M155.338 26.3446C155.338 23.9502 157.286 22.0076 159.685 22.0076C162.086 22.0076 164.032 23.9502 164.032 26.3446C164.032 28.739 162.086 30.6805 159.685 30.6805C157.286 30.6805 155.338 28.739 155.338 26.3446Z" fill="#585E67" fill-opacity="0.5"/>
<path d="M16.686 14.8585C16.686 12.1116 16.1538 10.0735 15.0894 8.74583C14.0239 7.41912 12.41 6.7565 10.2399 6.7565H7.93154V23.5552H9.69772C12.1081 23.5552 13.8743 22.8426 14.9989 21.4118C16.1223 19.9839 16.686 17.7989 16.686 14.8585ZM24.9181 14.5723C24.9181 19.5771 23.5694 23.4337 20.8724 26.1405C18.1753 28.8486 14.3837 30.2026 9.49644 30.2026H0V0.213459H10.1594C14.8718 0.213459 18.5099 1.44467 21.0735 3.9056C23.6363 6.36784 24.9181 9.92162 24.9181 14.5723ZM51.2233 30.2023H58.78V0.0876595H51.2233V30.2023ZM69.3956 18.9694C69.3956 20.8894 69.6473 22.354 70.1493 23.3603C70.6524 24.3682 71.4951 24.8714 72.6802 24.8714C73.8526 24.8714 74.6818 24.3682 75.1647 23.3603C75.6478 22.354 75.888 20.8894 75.888 18.9694C75.888 17.0593 75.6439 15.6186 75.1547 14.646C74.664 13.671 73.8276 13.1828 72.6413 13.1828C71.4814 13.1828 70.6526 13.6686 70.1493 14.6348C69.6473 15.6024 69.3956 17.0467 69.3956 18.9694ZM83.5794 18.9694C83.5794 22.6275 82.6183 25.4812 80.691 27.5269C78.7652 29.5737 76.0691 30.5978 72.6036 30.5978C69.2799 30.5978 66.6343 29.5511 64.6707 27.4578C62.7046 25.3646 61.722 22.5359 61.722 18.9694C61.722 15.3225 62.6844 12.4888 64.6117 10.4682C66.5388 8.44786 69.241 7.43759 72.7204 7.43759C74.8703 7.43759 76.7724 7.90569 78.4204 8.84078C80.0696 9.7755 81.3427 11.1148 82.237 12.859C83.1327 14.6009 83.5794 16.6389 83.5794 18.9694ZM86.5803 30.2025H94.1383V7.83309H86.5803V30.2025ZM86.5801 5.12739H94.138V0.0861816H86.5801V5.12739ZM109.45 24.497C110.47 24.497 111.686 24.2384 113.103 23.7252V29.3535C112.084 29.8003 111.116 30.1203 110.195 30.3098C109.274 30.5019 108.193 30.5972 106.957 30.5972C104.42 30.5972 102.591 29.961 101.467 28.6908C100.349 27.4208 99.7876 25.4707 99.7876 22.839V13.6178H97.1409V7.83494H99.7878V2.12243L107.404 0.801076V7.83494H112.225V13.6178H107.403V22.3246C107.403 23.7728 108.087 24.497 109.45 24.497ZM126.942 24.497C127.962 24.497 129.177 24.2384 130.595 23.7252V29.3535C129.578 29.8003 128.608 30.1203 127.687 30.3098C126.765 30.5019 125.688 30.5972 124.449 30.5972C121.911 30.5972 120.082 29.961 118.961 28.6908C117.841 27.4208 117.279 25.4707 117.279 22.839V13.6178H114.631V7.83494H117.279V2.03579L124.894 0.801076V7.83494H129.718V13.6178H124.894V22.3246C124.894 23.7728 125.577 24.497 126.942 24.497ZM140.132 16.2443C140.235 15.0195 140.586 14.1221 141.184 13.5486C141.786 12.9763 142.528 12.6903 143.416 12.6903C144.385 12.6903 145.155 13.0116 145.726 13.659C146.301 14.3028 146.6 15.1649 146.624 16.2443H140.132ZM150.789 10.0749C148.993 8.318 146.444 7.43833 143.147 7.43833C139.681 7.43833 137.014 8.4486 135.145 10.469C133.277 12.4895 132.342 15.3883 132.342 19.1659C132.342 22.8239 133.352 25.6451 135.368 27.6253C137.384 29.6056 140.216 30.597 143.863 30.597C145.614 30.597 147.121 30.4779 148.384 30.2405C149.639 30.0059 150.854 29.5818 152.033 28.9694L150.872 23.9282C150.015 24.2771 149.2 24.5457 148.43 24.7225C147.318 24.9799 146.098 25.1092 144.77 25.1092C143.313 25.1092 142.163 24.7541 141.32 24.0437C140.477 23.3321 140.028 22.3508 139.977 21.1009H153.485V17.6661C153.485 14.3619 152.587 11.8306 150.789 10.0749ZM34.9478 16.2443C35.0509 15.0195 35.4018 14.1221 36.0007 13.5486C36.6007 12.9763 37.3441 12.6903 38.2335 12.6903C39.1998 12.6903 39.9695 13.0116 40.5421 13.659C41.1169 14.3028 41.415 15.1649 41.4415 16.2443H34.9478ZM45.6064 10.0749C43.8089 8.318 41.2615 7.43833 37.9632 7.43833C34.496 7.43833 31.8304 8.4486 29.9624 10.469C28.0943 12.4895 27.1583 15.3883 27.1583 19.1659C27.1583 22.8239 28.1673 25.6451 30.185 27.6253C32.2004 29.6056 35.0321 30.597 38.6789 30.597C40.43 30.597 41.937 30.4779 43.2001 30.2405C44.4555 30.0059 45.6706 29.5818 46.8508 28.9694L45.6884 23.9282C44.8316 24.2771 44.0163 24.5457 43.2478 24.7225C42.1333 24.9799 40.9143 25.1092 39.5858 25.1092C38.1304 25.1092 36.9793 24.7541 36.1366 24.0437C35.2924 23.3321 34.8447 22.3508 34.793 21.1009H48.3012V17.6661C48.3012 14.3619 47.4029 11.8306 45.6066 10.0749" fill="#585E67" fill-opacity="0.5"/>
</svg>
