<svg width="170" height="42" viewBox="0 0 170 42" fill="none" xmlns="http://www.w3.org/2000/svg">
<path d="M167.551 38.8309C167.656 38.8319 167.759 38.8115 167.855 38.7709C167.951 38.7304 168.038 38.6705 168.11 38.595C168.182 38.5195 168.238 38.43 168.274 38.3321C168.31 38.2342 168.325 38.1299 168.319 38.0258C168.319 37.4548 167.975 37.182 167.268 37.182H166.126V40.1715H166.555V38.8683H167.083L167.095 38.8842L167.914 40.1715H168.374L167.492 38.8391L167.551 38.8309ZM167.055 38.5314H166.557V37.5208H167.188C167.514 37.5208 167.886 37.5741 167.886 38.001C167.886 38.4921 167.509 38.5314 167.052 38.5314M0.221436 6.14324H6.5614V29.2369H18.2986V35.0877H0.221436V6.14324ZM21.1015 15.4625H27.1921V35.0769H21.1015V15.4625ZM24.1468 5.71118C24.8456 5.71131 25.5286 5.91863 26.1096 6.30694C26.6905 6.69525 27.1433 7.24711 27.4106 7.89272C27.6779 8.53834 27.7478 9.24873 27.6114 9.93406C27.475 10.6194 27.1385 11.2489 26.6443 11.743C26.1502 12.237 25.5206 12.5735 24.8352 12.7097C24.1499 12.846 23.4395 12.776 22.7939 12.5086C22.1484 12.2411 21.5966 11.7883 21.2084 11.2073C20.8202 10.6262 20.613 9.94316 20.613 9.24438C20.613 8.78034 20.7044 8.32085 20.882 7.89214C21.0596 7.46343 21.3199 7.0739 21.6481 6.74581C21.9762 6.41771 22.3658 6.15747 22.7945 5.97995C23.2233 5.80243 23.6828 5.7111 24.1468 5.71118ZM52.67 6.1388H58.7606V23.4368L65.6634 15.4537H73.1307L65.1368 24.5344L72.9626 35.0851H65.3074L58.8418 25.3896H58.7619V35.0839H52.6713L52.67 6.1388ZM30.5693 15.4644H36.4182V18.1449H36.5013C37.0855 17.1441 37.9306 16.3206 38.9463 15.7626C39.962 15.2046 41.1103 14.9329 42.2684 14.9766C48.4446 14.9766 49.5816 19.0401 49.5816 24.3193V35.0756H43.4909V25.5394C43.4909 23.263 43.449 20.3369 40.3187 20.3369C37.1529 20.3369 36.6643 22.8157 36.6643 25.3738V35.0731H30.5737L30.5693 15.4644Z" fill="#585E67" fill-opacity="0.5"/>
<path d="M85.9573 22.9885C85.9689 22.4943 85.8802 22.003 85.6963 21.5442C85.5125 21.0854 85.2374 20.6686 84.8878 20.3193C84.5382 19.9699 84.1213 19.6951 83.6624 19.5116C83.2034 19.3281 82.712 19.2396 82.2179 19.2516C81.1537 19.1854 80.1061 19.54 79.301 20.2391C78.4959 20.9381 77.9977 21.9255 77.9138 22.9885H85.9573ZM91.1166 31.6803C90.1045 32.9076 88.8321 33.8945 87.3915 34.5694C85.951 35.2444 84.3784 35.5905 82.7876 35.5827C76.697 35.5827 71.8207 31.5173 71.8207 25.2217C71.8207 18.9261 76.6964 14.8626 82.7876 14.8626C88.4805 14.8626 92.0505 18.923 92.0505 25.2217V27.1314H77.9138C78.0899 28.2144 78.6513 29.1973 79.4948 29.8991C80.3384 30.6008 81.407 30.9741 82.504 30.9501C83.3709 30.9447 84.2227 30.7226 84.9819 30.3039C85.741 29.8853 86.3834 29.2834 86.8506 28.5531L91.1166 31.6803ZM104.746 20.2039C101.7 20.2039 99.8731 22.2373 99.8731 25.2001C99.8731 28.163 101.7 30.1982 104.746 30.1982C107.792 30.1982 109.623 28.168 109.623 25.2001C109.623 22.2322 107.795 20.2039 104.746 20.2039ZM115.23 35.0733H109.623V32.4721H109.539C108.836 33.4182 107.924 34.1892 106.873 34.7249C105.823 35.2606 104.663 35.5466 103.484 35.5605C97.6323 35.5605 93.7774 31.3371 93.7774 25.3644C93.7774 19.8791 97.1888 14.8423 102.797 14.8423C105.317 14.8423 107.672 15.5319 109.053 17.4435H109.133V6.13709H115.229L115.23 35.0733ZM156.347 35.0847H150.257V25.5465C150.257 23.2721 150.216 20.3441 147.089 20.3441C143.917 20.3441 143.431 22.8222 143.431 25.3809V35.0841H137.341V15.4697H143.188V18.1502H143.269C143.855 17.1497 144.7 16.3267 145.716 15.7687C146.732 15.2108 147.88 14.9388 149.038 14.9818C155.212 14.9818 156.35 19.0422 156.35 24.3246L156.347 35.0847ZM130.468 12.7886C129.769 12.7887 129.086 12.5815 128.505 12.1933C127.923 11.805 127.47 11.2531 127.203 10.6073C126.935 9.96147 126.865 9.25082 127.001 8.56518C127.137 7.87953 127.474 7.24969 127.968 6.7553C128.462 6.26091 129.092 5.92417 129.778 5.78767C130.463 5.65117 131.174 5.72103 131.82 5.98843C132.466 6.25583 133.018 6.70875 133.406 7.28992C133.795 7.87109 134.002 8.55441 134.002 9.25346C134.002 9.71762 133.911 10.1772 133.733 10.6061C133.556 11.0349 133.296 11.4246 132.967 11.7529C132.639 12.0812 132.25 12.3416 131.821 12.5193C131.392 12.697 130.933 12.7885 130.468 12.7886ZM133.514 35.0847H127.417V15.4697H133.514V35.0847ZM159.384 0.0635905H124.356C123.561 0.0546187 122.795 0.361647 122.226 0.917209C121.658 1.47277 121.333 2.23141 121.323 3.02643V38.1992C121.332 38.9946 121.657 39.7537 122.226 40.3099C122.795 40.866 123.561 41.1737 124.356 41.1652H159.384C160.181 41.1752 160.949 40.8684 161.52 40.3123C162.091 39.7562 162.418 38.9962 162.429 38.1992V3.02389C162.418 2.2273 162.09 1.46779 161.519 0.912247C160.948 0.356699 160.18 0.0505467 159.384 0.0610528M167.107 35.8505C166.366 35.8576 165.658 36.1579 165.137 36.6857C164.617 37.2134 164.327 37.9257 164.331 38.6668C164.334 39.4078 164.631 40.1173 165.156 40.6401C165.682 41.1628 166.393 41.4563 167.134 41.4563C167.875 41.4563 168.586 41.1628 169.111 40.6401C169.636 40.1173 169.933 39.4078 169.937 38.6668C169.94 37.9257 169.65 37.2134 169.13 36.6857C168.61 36.1579 167.902 35.8576 167.161 35.8505H167.107ZM167.107 41.1354C166.621 41.1435 166.143 41.0072 165.734 40.7439C165.326 40.4806 165.004 40.1021 164.811 39.6561C164.618 39.2102 164.561 38.7169 164.648 38.2386C164.734 37.7603 164.961 37.3185 165.299 36.9691C165.637 36.6197 166.071 36.3784 166.546 36.2756C167.021 36.1728 167.516 36.2133 167.968 36.3918C168.421 36.5703 168.81 36.8789 169.086 37.2785C169.363 37.6782 169.515 38.1509 169.523 38.6369V38.6782C169.537 39.3158 169.297 39.9327 168.856 40.3932C168.414 40.8538 167.808 41.1203 167.171 41.1341H167.107" fill="#585E67" fill-opacity="0.5"/>
</svg>
