<svg width="166" height="34" viewBox="0 0 166 34" fill="none" xmlns="http://www.w3.org/2000/svg">
<path d="M5.79176 22.0721C5.79176 23.9875 6.21218 25.4581 6.76169 26.3478C7.48216 27.5131 8.55676 28.0068 9.65229 28.0068C11.0653 28.0068 12.358 27.6561 14.8491 24.2108C16.8448 21.4493 19.1963 17.5731 20.7786 15.143L23.4581 11.026C25.3194 8.16684 27.4739 4.9884 29.944 2.83397C31.9607 1.07554 34.136 0.0986328 36.3253 0.0986328C40.001 0.0986328 43.5021 2.22864 46.1816 6.22349C49.1141 10.5986 50.5376 16.1094 50.5376 21.7964C50.5376 25.1772 49.8712 27.6614 48.7373 29.6239C47.6418 31.5219 45.5065 33.4182 41.9147 33.4182V28.0068C44.9902 28.0068 45.7577 25.1807 45.7577 21.9465C45.7577 17.3376 44.6831 12.2228 42.3159 8.56807C40.6359 5.97578 38.4588 4.39179 36.0637 4.39179C33.4731 4.39179 31.3885 6.34561 29.0456 9.82933C27.8001 11.6802 26.5214 13.9358 25.0857 16.481L23.5052 19.2809C20.3302 24.9103 19.526 26.1925 17.9386 28.3086C15.1561 32.0138 12.7801 33.4182 9.65229 33.4182C5.94178 33.4182 3.59546 31.8115 2.14231 29.3902C0.956069 27.4172 0.373413 24.8283 0.373413 21.8784L5.79176 22.0721Z" fill="#585E67" fill-opacity="0.5"/>
<path d="M4.64551 6.60553C7.12964 2.77641 10.7145 0.0986328 14.8263 0.0986328C17.2075 0.0986328 19.5747 0.803402 22.0467 2.82176C24.7506 5.02853 27.6325 8.66227 31.2279 14.6511L32.517 16.8003C35.6292 21.9848 37.3998 24.6522 38.436 25.9099C39.7688 27.5253 40.7021 28.0068 41.9145 28.0068C44.99 28.0068 45.7576 25.1807 45.7576 21.9465L50.5375 21.7964C50.5375 25.1772 49.8711 27.6614 48.7372 29.6239C47.6416 31.5219 45.5064 33.4182 41.9145 33.4182C39.6816 33.4182 37.7034 32.9332 35.5158 30.8695C33.8341 29.2855 31.8681 26.4716 30.3556 23.9422L25.8566 16.4269C23.5993 12.6554 21.5286 9.84328 20.3301 8.56982C19.0409 7.2004 17.3837 5.54664 14.7391 5.54664C12.5986 5.54664 10.7808 7.04863 9.25965 9.34611L4.64551 6.60553Z" fill="#585E67" fill-opacity="0.5"/>
<path d="M14.7392 5.54664C12.5987 5.54664 10.781 7.04863 9.25978 9.34611C7.10884 12.5926 5.79176 17.4283 5.79176 22.0721C5.79176 23.9875 6.21218 25.4581 6.76169 26.3478L2.14231 29.3902C0.956069 27.4172 0.373413 24.8283 0.373413 21.8784C0.373413 16.5142 1.84575 10.9231 4.64564 6.60553C7.12977 2.77641 10.7147 0.0986328 14.8264 0.0986328L14.7392 5.54664Z" fill="#585E67" fill-opacity="0.5"/>
<path d="M61.0707 1.15234H67.3386L77.9956 20.4323L88.6544 1.15234H94.7862V32.8321H89.6731V8.55242L80.3262 25.3657H75.5289L66.1837 8.55242V32.8321H61.0707V1.15234ZM110.807 12.9642C107.141 12.9642 104.932 15.724 104.404 19.1414H116.849C116.592 15.621 114.562 12.9642 110.807 12.9642ZM99.3341 21.0882C99.3341 13.8975 103.981 8.66406 110.896 8.66406C117.698 8.66406 121.759 13.8312 121.759 21.472V22.8763H104.404C105.019 26.5938 107.486 29.0989 111.463 29.0989C114.637 29.0989 116.62 28.1307 118.501 26.36L121.217 29.6868C118.658 32.0401 115.402 33.3973 111.282 33.3973C103.796 33.3973 99.3341 27.9388 99.3341 21.0882ZM127.959 13.4178H123.253V9.23102H127.959V2.30719H132.893V9.23102H140.043V13.4178H132.893V24.0294C132.893 27.6527 134.051 28.9401 136.898 28.9401C138.198 28.9401 138.942 28.8285 140.043 28.6453V32.7867C138.672 33.174 137.364 33.3519 135.947 33.3519C130.621 33.3519 127.959 30.4421 127.959 24.6173V13.4178ZM160.816 17.4894C159.826 14.9878 157.615 13.1456 154.367 13.1456C150.145 13.1456 147.443 16.1409 147.443 21.0202C147.443 25.7774 149.931 28.9174 154.165 28.9174C157.493 28.9174 159.869 26.9811 160.816 24.572V17.4894ZM165.75 32.8321H160.907V29.528C159.553 31.4731 157.09 33.3973 153.101 33.3973C146.684 33.3973 142.396 28.026 142.396 21.0202C142.396 13.9481 146.787 8.66406 153.373 8.66406C156.628 8.66406 159.182 9.96544 160.907 12.2629V9.23102H165.75V32.8321Z" fill="#585E67" fill-opacity="0.5"/>
</svg>
