<svg width="172" height="37" viewBox="0 0 172 37" fill="none" xmlns="http://www.w3.org/2000/svg">
<path d="M35.633 22.9787C33.2448 32.558 23.5425 38.3879 13.962 35.9991C4.38547 33.6108 -1.44438 23.908 0.945002 14.3292C3.33215 4.74873 13.0344 -1.08169 22.6121 1.30658C32.192 3.69485 38.0213 13.3988 35.633 22.9787Z" fill="#585E67" fill-opacity="0.5"/>
<path d="M26.1728 16.1057C26.5287 13.7264 24.7171 12.4473 22.24 11.594L23.0435 8.37092L21.0816 7.88198L20.2993 11.0201C19.7836 10.8916 19.2538 10.7704 18.7274 10.6502L19.5153 7.49138L17.5545 7.00244L16.7504 10.2244C16.3235 10.1272 15.9044 10.0311 15.4976 9.92994L15.4999 9.91988L12.7942 9.24431L12.2723 11.3398C12.2723 11.3398 13.7279 11.6734 13.6972 11.694C14.4918 11.8924 14.6354 12.4182 14.6114 12.8351L13.6961 16.5069C13.7509 16.5209 13.8218 16.541 13.9 16.5723C13.8347 16.5561 13.7648 16.5382 13.6927 16.5209L12.4098 21.6645C12.3125 21.9059 12.0661 22.268 11.5107 22.1306C11.5302 22.1591 10.0846 21.7746 10.0846 21.7746L9.11066 24.0204L11.6638 24.6569C12.1387 24.7759 12.6042 24.9005 13.0624 25.0178L12.2505 28.2778L14.2102 28.7668L15.0143 25.5414C15.5496 25.6867 16.0693 25.8208 16.5778 25.9471L15.7765 29.1574L17.7384 29.6463L18.5503 26.3925C21.8958 27.0256 24.4114 26.7702 25.4704 23.7444C26.3236 21.308 25.4279 19.9027 23.6677 18.9863C24.9496 18.6907 25.9152 17.8474 26.1728 16.1057ZM21.6901 22.3915C21.0839 24.8279 16.9818 23.5108 15.6519 23.1805L16.7292 18.8616C18.0591 19.1936 22.3238 19.8507 21.6901 22.3915ZM22.297 16.0705C21.7438 18.2867 18.3296 17.1607 17.2221 16.8846L18.1988 12.9675C19.3063 13.2436 22.8731 13.7588 22.297 16.0705Z" fill="white"/>
<path d="M52.8102 11.5906C54.2603 11.5906 55.5131 11.8504 56.5659 12.3606C57.6236 12.8758 58.4965 13.5698 59.1966 14.4426C59.8873 15.3199 60.4014 16.3453 60.7333 17.5204C61.063 18.6989 61.2284 19.9657 61.2284 21.3219C61.2284 23.4051 60.8468 25.3731 60.0762 27.2283C59.3056 29.0863 58.2601 30.6978 56.9302 32.0725C55.6014 33.4454 54.0323 34.5278 52.2229 35.3274C50.4164 36.1276 48.4522 36.5277 46.3434 36.5277C46.0707 36.5277 45.5912 36.5199 44.914 36.5059C44.2367 36.4919 43.4583 36.4221 42.5866 36.3042C41.7093 36.1818 40.7817 36.0008 39.8022 35.7582C38.8232 35.5202 37.8933 35.1866 37.0177 34.763L44.8475 1.8637L51.8603 0.776855L49.0568 12.4517C49.657 12.1812 50.2616 11.9717 50.8651 11.8191C51.4691 11.6688 52.1173 11.5906 52.8102 11.5906ZM46.9278 30.9644C47.984 30.9644 48.9792 30.7045 49.914 30.1944C50.8517 29.6836 51.6608 28.9941 52.3386 28.1352C53.0164 27.2725 53.5529 26.3007 53.944 25.215C54.3352 24.1293 54.533 22.9966 54.533 21.8181C54.533 20.3703 54.291 19.241 53.8088 18.4246C53.3266 17.6115 52.4342 17.2025 51.1383 17.2025C50.7136 17.2025 50.1666 17.2835 49.4882 17.4282C48.8076 17.5819 48.1985 17.901 47.6526 18.381L44.6675 30.7794C44.8475 30.8113 45.0067 30.8415 45.1425 30.8699C45.2755 30.9007 45.4225 30.9225 45.5689 30.9376C45.7237 30.9549 45.9008 30.9638 46.1148 30.9638C46.3288 30.9638 46.5965 30.9644 46.9278 30.9644ZM68.5011 35.8979H61.8028L67.4595 12.0952H74.2035L68.5011 35.8979ZM71.7605 9.19503C70.8256 9.19503 69.9779 8.91675 69.2258 8.35908C68.4675 7.80476 68.092 6.95149 68.092 5.8015C68.092 5.16895 68.2205 4.57551 68.4754 4.0156C68.7341 3.45681 69.0721 2.9757 69.4957 2.56666C69.9187 2.16098 70.4088 1.83688 70.9653 1.59269C71.5252 1.35241 72.1209 1.23227 72.7557 1.23227C73.69 1.23227 74.5332 1.51055 75.2881 2.06822C76.0402 2.62869 76.4186 3.48196 76.4186 4.6258C76.4186 5.26059 76.2906 5.85626 76.0335 6.41505C75.7782 6.97384 75.4401 7.45496 75.0166 7.86399C74.5969 8.27023 74.1024 8.59321 73.5469 8.83517C72.9865 9.07936 72.393 9.19503 71.7605 9.19503ZM80.0736 6.16471L87.0892 5.07786L85.3665 12.094H92.88L91.5232 17.6138H84.055L82.0657 25.9397C81.8824 26.6338 81.7785 27.282 81.7494 27.8843C81.7164 28.4895 81.793 29.0092 81.974 29.4467C82.154 29.8854 82.4775 30.2234 82.9469 30.4626C83.4141 30.7057 84.0829 30.828 84.9602 30.828C85.6827 30.828 86.3868 30.7593 87.0674 30.623C87.7441 30.4889 88.4298 30.3022 89.1238 30.058L89.6233 35.219C88.7181 35.5509 87.738 35.8365 86.6819 36.0768C85.6241 36.3204 84.3718 36.4377 82.9245 36.4377C80.8436 36.4377 79.2304 36.1287 78.081 35.5135C76.9332 34.8938 76.1218 34.0472 75.6362 32.9755C75.1574 31.9076 74.9433 30.6766 75.0031 29.2897C75.0652 27.8994 75.2747 26.4382 75.6362 24.8993L80.0736 6.16471ZM92.5849 26.3929C92.5849 24.3427 92.9168 22.4093 93.5801 20.5994C94.2423 18.7878 95.1961 17.2036 96.4339 15.8441C97.6671 14.4912 99.1697 13.4195 100.938 12.6327C102.698 11.8504 104.669 11.4559 106.841 11.4559C108.201 11.4559 109.415 11.5844 110.484 11.842C111.556 12.1019 112.527 12.4377 113.405 12.859L111.095 18.1117C110.491 17.8669 109.865 17.6512 109.217 17.4556C108.569 17.2561 107.778 17.16 106.842 17.16C104.606 17.16 102.839 17.9306 101.523 19.4667C100.213 21.0039 99.553 23.0731 99.553 25.6687C99.553 27.2071 99.8849 28.4509 100.551 29.4026C101.214 30.3542 102.438 30.8275 104.216 30.8275C105.093 30.8275 105.939 30.7358 106.75 30.557C107.567 30.376 108.289 30.148 108.924 29.8787L109.424 35.2632C108.577 35.5917 107.643 35.8884 106.618 36.1483C105.591 36.3992 104.368 36.5294 102.95 36.5294C101.079 36.5294 99.4949 36.2556 98.1991 35.7163C96.9027 35.1687 95.8315 34.4417 94.9877 33.5209C94.1395 32.5977 93.5304 31.5198 93.1538 30.2827C92.7771 29.0466 92.5849 27.748 92.5849 26.3929ZM122.34 36.5294C120.742 36.5294 119.353 36.2857 118.175 35.8035C117.001 35.3213 116.028 34.6446 115.258 33.7673C114.488 32.8944 113.911 31.8601 113.516 30.6682C113.121 29.4769 112.931 28.1576 112.931 26.712C112.931 24.8987 113.222 23.086 113.811 21.2783C114.396 19.4667 115.265 17.839 116.415 16.3923C117.556 14.9433 118.964 13.7587 120.621 12.835C122.277 11.9175 124.181 11.4559 126.32 11.4559C127.89 11.4559 129.271 11.7001 130.465 12.1823C131.654 12.6634 132.633 13.3457 133.407 14.2186C134.172 15.0959 134.754 16.1257 135.145 17.3193C135.539 18.5084 135.734 19.831 135.734 21.2778C135.734 23.0854 135.446 24.8982 134.876 26.7114C134.306 28.5158 133.459 30.1474 132.342 31.5975C131.226 33.0442 129.832 34.2283 128.156 35.148C126.483 36.0678 124.543 36.5294 122.34 36.5294ZM125.688 17.1606C124.695 17.1606 123.817 17.4489 123.066 18.0183C122.311 18.5944 121.678 19.3186 121.167 20.192C120.651 21.0693 120.268 22.026 120.009 23.0659C119.753 24.108 119.627 25.0932 119.627 26.0291C119.627 27.5396 119.871 28.7158 120.35 29.5624C120.835 30.4045 121.707 30.828 122.975 30.828C123.972 30.828 124.845 30.5419 125.601 29.9664C126.351 29.3947 126.985 28.67 127.5 27.7949C128.013 26.9221 128.399 25.9627 128.658 24.9211C128.911 23.8823 129.04 22.8915 129.04 21.9572C129.04 20.4507 128.797 19.2717 128.314 18.4262C127.831 17.5842 126.955 17.1606 125.688 17.1606ZM143.032 35.8979H136.329L141.985 12.0952H148.733L143.032 35.8979ZM146.287 9.19503C145.353 9.19503 144.505 8.91675 143.754 8.35908C143 7.80476 142.621 6.95149 142.621 5.8015C142.621 5.16895 142.751 4.57551 143.007 4.0156C143.262 3.45681 143.602 2.9757 144.026 2.56666C144.447 2.16098 144.941 1.83688 145.497 1.59269C146.053 1.35241 146.649 1.23227 147.282 1.23227C148.218 1.23227 149.064 1.51055 149.817 2.06822C150.571 2.62869 150.952 3.48196 150.952 4.6258C150.952 5.26059 150.816 5.85626 150.563 6.41505C150.31 6.97384 149.97 7.45496 149.548 7.86399C149.123 8.27023 148.635 8.59321 148.078 8.83517C147.517 9.07936 146.923 9.19503 146.287 9.19503ZM153.56 13.1775C154.069 13.0289 154.636 12.8501 155.254 12.6556C155.873 12.4612 156.566 12.2801 157.339 12.1169C158.104 11.9488 158.968 11.8124 159.917 11.7068C160.866 11.5989 161.948 11.5464 163.15 11.5464C166.683 11.5464 169.118 12.5752 170.462 14.6265C171.806 16.6778 172.038 19.4852 171.166 23.0435L168.085 35.8957H161.343L164.329 23.314C164.511 22.5283 164.654 21.7689 164.76 21.0269C164.867 20.2915 164.861 19.6433 164.736 19.0823C164.617 18.5279 164.336 18.0742 163.901 17.7227C163.459 17.3768 162.791 17.2031 161.886 17.2031C161.012 17.2031 160.124 17.2969 159.217 17.478L154.826 35.8952H148.081L153.56 13.1775Z" fill="#585E67" fill-opacity="0.5"/>
</svg>
