<svg width="146" height="45" viewBox="0 0 146 45" fill="none" xmlns="http://www.w3.org/2000/svg">
<path fill-rule="evenodd" clip-rule="evenodd" d="M90.6602 34.7159C82.2517 40.9137 70.0639 44.2205 59.5704 44.2205C44.8567 44.2205 31.6108 38.7784 21.5895 29.7274C20.8024 29.0155 21.5078 28.0456 22.4525 28.5999C33.2673 34.8923 46.6393 38.6777 60.4522 38.6777C69.7678 38.6777 80.0157 36.7503 89.4384 32.7507C90.8618 32.146 92.0522 33.6829 90.6602 34.7159Z" fill="#585E67" fill-opacity="0.5"/>
<path fill-rule="evenodd" clip-rule="evenodd" d="M94.156 30.7162C93.0852 29.343 87.051 30.0673 84.3425 30.3886C83.5175 30.4894 83.3916 29.7713 84.1347 29.2549C88.9406 25.8725 96.8265 26.8488 97.7461 27.9825C98.6656 29.1226 97.5068 37.0273 92.9906 40.8002C92.2978 41.3797 91.6363 41.0711 91.945 40.3026C92.9592 37.7706 95.233 32.0956 94.156 30.7162Z" fill="#585E67" fill-opacity="0.5"/>
<path fill-rule="evenodd" clip-rule="evenodd" d="M84.5317 5.37672V2.08889C84.5317 1.59127 84.9096 1.25745 85.3631 1.25745H100.083C100.555 1.25745 100.933 1.59749 100.933 2.08889V4.90428C100.927 5.37672 100.53 5.994 99.8248 6.97028L92.1972 17.8606C95.0316 17.7914 98.0233 18.2133 100.593 19.6621C101.173 19.9895 101.33 20.4683 101.374 20.9406V24.449C101.374 24.9276 100.845 25.4882 100.291 25.1985C95.7621 22.824 89.747 22.5657 84.7396 25.2237C84.2294 25.5009 83.694 24.9466 83.694 24.4679V21.136C83.694 20.6006 83.7002 19.6872 84.2356 18.8748L93.0726 6.20193H85.3819C84.9096 6.20193 84.5317 5.86812 84.5317 5.37672ZM30.836 25.8913H26.3576C25.9293 25.8599 25.5893 25.5387 25.5577 25.1292V2.14561C25.5577 1.68576 25.9419 1.32039 26.4206 1.32039H30.5966C31.0312 1.3392 31.3776 1.67317 31.4092 2.08874V5.0934H31.4911C32.5807 2.18974 34.6277 0.835655 37.3865 0.835655C40.1893 0.835655 41.9405 2.18974 43.2002 5.0934C44.2836 2.18974 46.7463 0.835655 49.3855 0.835655C51.2624 0.835655 53.3158 1.61037 54.5692 3.34877C55.9863 5.28238 55.6966 8.09155 55.6966 10.5543L55.6903 25.06C55.6903 25.5199 55.3061 25.8915 54.8274 25.8915H50.3554C49.9083 25.8601 49.5491 25.5011 49.5491 25.06V12.8785C49.5491 11.9084 49.6374 9.48962 49.4233 8.57021C49.0894 7.027 48.088 6.59233 46.7903 6.59233C45.707 6.59233 44.5733 7.31669 44.1134 8.47572C43.6537 9.63476 43.6978 11.5746 43.6978 12.8785V25.0599C43.6978 25.5197 43.3135 25.8913 42.8349 25.8913H38.3628C37.9093 25.8599 37.5566 25.5009 37.5566 25.0599L37.5503 12.8785C37.5503 10.3148 37.9723 6.54212 34.7915 6.54212C31.573 6.54212 31.6989 10.2203 31.6989 12.8785V25.0599C31.6989 25.5197 31.3147 25.8913 30.836 25.8913ZM113.606 0.83551C120.251 0.83551 123.848 6.54198 123.848 13.798C123.848 20.8084 119.873 26.3701 113.606 26.3701C107.081 26.3701 103.528 20.6635 103.528 13.5523C103.528 6.39713 107.125 0.83551 113.606 0.83551ZM113.644 5.52793C110.343 5.52793 110.136 10.0252 110.136 12.828C110.136 15.6373 110.092 21.6334 113.606 21.6334C117.077 21.6334 117.24 16.7962 117.24 13.8484C117.24 11.9084 117.159 9.59048 116.573 7.75136C116.069 6.15143 115.067 5.52793 113.644 5.52793ZM132.464 25.8913H128.005C127.558 25.8599 127.199 25.5009 127.199 25.0599L127.192 2.06993C127.23 1.64799 127.602 1.32039 128.055 1.32039H132.206C132.597 1.3392 132.918 1.604 133.006 1.96285V5.47757H133.088C134.341 2.33458 136.099 0.83551 139.191 0.83551C141.2 0.83551 143.159 1.55972 144.419 3.54383C145.591 5.38294 145.591 8.47572 145.591 10.6992V25.167C145.54 25.5701 145.169 25.8913 144.728 25.8913H140.237C139.827 25.8599 139.487 25.5575 139.443 25.167V12.6831C139.443 10.17 139.733 6.49148 136.64 6.49148C135.551 6.49148 134.549 7.2222 134.052 8.33074C133.422 9.73547 133.34 11.1337 133.34 12.6833V25.0599C133.333 25.5197 132.943 25.8913 132.464 25.8913ZM72.7974 14.9129C72.7974 16.6575 72.8415 18.1126 71.9596 19.6619C71.2479 20.9218 70.1142 21.6964 68.8607 21.6964C67.1413 21.6964 66.1334 20.3864 66.1334 18.4527C66.1334 14.6357 69.5537 13.9429 72.7974 13.9429V14.9129ZM77.3134 25.8284C77.0175 26.0929 76.5892 26.1118 76.2554 25.9354C74.7689 24.7009 74.498 24.1277 73.6855 22.9499C71.229 25.4568 69.4844 26.2063 66.3035 26.2063C62.5306 26.2063 59.6018 23.882 59.6018 19.2275C59.6018 15.5931 61.5669 13.1178 64.3761 11.9084C66.8074 10.8376 70.2024 10.6487 72.7975 10.3526V9.77323C72.7975 8.70869 72.8793 7.44894 72.2494 6.52939C71.7078 5.70432 70.6621 5.36413 69.7363 5.36413C68.0293 5.36413 66.5114 6.23956 66.1398 8.05364C66.0641 8.45677 65.7681 8.85353 65.3587 8.87249L61.0189 8.40641C60.6537 8.32451 60.2442 8.02846 60.3513 7.4679C61.3465 2.20233 66.1083 0.61499 70.3663 0.61499C72.5456 0.61499 75.3925 1.19451 77.1121 2.84479C79.2913 4.87925 79.0835 7.59379 79.0835 10.5479V17.5267C79.0835 19.6243 79.9529 20.5437 80.7716 21.6776C81.0552 22.0807 81.118 22.5657 80.7527 22.868C79.8394 23.6301 78.2143 25.0473 77.3199 25.841L77.3137 25.8284M14.0879 14.9129C14.0879 16.6575 14.1321 18.1126 13.2501 19.6619C12.5385 20.9218 11.411 21.6964 10.1513 21.6964C8.43184 21.6964 7.43023 20.3864 7.43023 18.4527C7.43023 14.6357 10.8505 13.9429 14.0879 13.9429V14.9129ZM18.604 25.8284C18.3081 26.0929 17.8798 26.1118 17.5459 25.9354C16.0595 24.7009 15.7948 24.1277 14.9761 22.9499C12.5196 25.4568 10.7813 26.2063 7.59403 26.2063C3.82754 26.2063 0.892334 23.882 0.892334 19.2275C0.892334 15.5931 2.86385 13.1178 5.66665 11.9084C8.09802 10.8376 11.4929 10.6487 14.0879 10.3526V9.77323C14.0879 8.70869 14.1698 7.44894 13.5462 6.52939C12.9982 5.70432 11.9528 5.36413 11.0331 5.36413C9.32622 5.36413 7.80196 6.23956 7.43023 8.05364C7.3547 8.45677 7.05865 8.85353 6.65552 8.87249L2.30951 8.40641C1.94415 8.32451 1.54116 8.02846 1.64187 7.4679C2.64333 2.20233 7.39884 0.61499 11.6567 0.61499C13.8359 0.61499 16.683 1.19451 18.4026 2.84479C20.5817 4.87925 20.3739 7.59379 20.3739 10.5479V17.5267C20.3739 19.6243 21.2431 20.5437 22.062 21.6776C22.3518 22.0807 22.4148 22.5657 22.0494 22.868C21.1361 23.6301 19.5111 25.0473 18.6167 25.841L18.604 25.8284Z" fill="#585E67" fill-opacity="0.5"/>
</svg>
