<svg width="190" height="42" viewBox="0 0 190 42" fill="none" xmlns="http://www.w3.org/2000/svg">
<path d="M69.8778 14.2837H65.54V34.9931H69.8778V26.5974H79.3929V34.9931H83.5908V14.2837H79.3929V22.6794H69.8778V14.2837ZM103.181 26.1776C103.181 29.5359 101.502 31.355 98.4232 31.355C95.3448 31.355 93.6656 29.5359 93.6656 26.0377V14.2837H89.4678V26.1776C89.4678 32.0546 92.6861 35.4129 98.4232 35.4129C104.16 35.4129 107.379 32.0546 107.379 26.0377V14.2837H103.181V26.1776ZM143.76 14.2837L139.002 28.5564L134.385 14.2837H129.907L137.183 34.9931H140.682L145.439 21.4201L150.057 34.9931H153.695L160.831 14.2837H156.493L151.876 28.5564L147.118 14.2837H143.76ZM176.083 22.2596H168.387V18.0618H179.582V14.2837H164.189V34.9931H180.001V31.215H168.387V26.0377H176.083V22.2596ZM185.039 14.2837H189.237V34.9931H185.039V14.2837ZM125.149 30.6553L126.969 34.9931H131.446L122.351 14.2837L122.211 14.1438H118.573L109.478 34.9931H113.815L115.634 30.9352L115.774 30.6553H125.149ZM120.392 19.4611L123.33 26.4575L123.47 26.8773H117.034L117.174 26.4575L120.392 19.4611Z" fill="#585E67" fill-opacity="0.5"/>
<path d="M24.1213 32.8942C24.1213 32.8942 24.2613 32.7543 24.1213 32.7543C17.6846 18.7615 8.86916 7.987 8.86916 7.987C8.86916 7.987 4.1116 12.4647 4.39145 17.0823C4.53138 20.5805 7.19002 22.5395 7.19002 22.5395C11.3879 26.5975 21.4627 31.7748 23.8415 32.8942H24.1213ZM22.4422 36.3924C22.4422 36.2525 22.1623 36.2525 22.1623 36.2525L5.37095 36.8122C7.19002 40.0306 10.2684 42.5493 13.4868 41.8496C15.7256 41.2899 20.7631 37.7917 22.3023 36.6723C22.5821 36.3924 22.4422 36.3924 22.4422 36.3924ZM22.7221 34.8532C22.862 34.7133 22.7221 34.5734 22.7221 34.5734C15.3059 29.5359 1.03317 21.9798 1.03317 21.9798C-0.22618 26.0377 1.45296 29.2561 1.45296 29.2561C3.27203 33.1741 6.77023 34.2935 6.77023 34.2935C8.30944 34.9932 9.98858 34.9932 9.98858 34.9932H22.5821C22.7221 34.9932 22.7221 34.8532 22.7221 34.8532ZM23.8415 0.710729C23.1418 0.710729 21.1828 1.27044 21.1828 1.27044C16.7051 2.38987 15.7256 6.44779 15.7256 6.44779C14.8861 8.9665 15.7256 11.7651 15.7256 11.7651C17.2649 18.3417 24.5411 29.2561 26.0803 31.4949L26.2203 31.6349C26.3602 31.6349 26.3602 31.4949 26.3602 31.4949C28.8789 7.0075 23.8415 0.710729 23.8415 0.710729ZM29.4386 31.4949C29.5785 31.4949 29.7185 31.355 29.7185 31.355C31.3976 28.9762 38.5339 18.2018 40.0732 11.6251C40.0732 11.6251 40.9127 8.40678 40.0732 6.30786C40.0732 6.30786 38.9537 2.24994 34.476 1.13051C34.476 1.13051 33.2167 0.850657 31.8174 0.570801C31.8174 0.570801 26.78 7.0075 29.2987 31.2151C29.2987 31.4949 29.4386 31.4949 29.4386 31.4949ZM33.3566 36.2525C33.3566 36.2525 33.2167 36.2525 33.2167 36.3924V36.6723C34.8958 37.7917 39.6534 41.2899 42.0322 41.8496C42.0322 41.8496 46.3699 43.3888 50.148 36.8122L33.3566 36.2525ZM54.7656 21.8399C54.7656 21.8399 40.4929 29.5359 33.0767 34.5734C33.0767 34.5734 32.9368 34.7133 32.9368 34.8532C32.9368 34.8532 32.9368 34.9932 33.0767 34.9932H45.9501C45.9501 34.9932 47.2095 34.9932 48.8886 34.2935C48.8886 34.2935 52.3868 33.1741 54.3458 29.1162C54.3458 28.9762 56.025 25.7579 54.7656 21.8399ZM31.6775 32.8942C31.6775 32.8942 31.8174 33.0342 31.9573 32.8942C34.3361 31.6349 44.4109 26.5975 48.6088 22.5395C48.6088 22.5395 51.2674 20.4406 51.4073 17.0823C51.6872 12.3248 46.9296 7.987 46.9296 7.987C46.9296 7.987 38.1142 18.4816 31.6775 32.6144C31.6775 32.6144 31.5375 32.7543 31.6775 32.8942Z" fill="#585E67" fill-opacity="0.5"/>
</svg>
