<svg width="201" height="43" viewBox="0 0 201 43" fill="none" xmlns="http://www.w3.org/2000/svg">
<path d="M115.155 26.6648L127.067 15.2277H115.335V9.84202H135.402V15.3161L123.488 26.7089H135.628V32.0946H115.159L115.155 26.6648ZM106.691 2.52297H112.897V8.05955H106.691V2.52297ZM106.608 9.90905H112.813V32.1617H106.608V9.90905ZM31.55 20.9683C31.5747 14.6079 36.8384 9.46923 43.3121 9.48549C49.7857 9.50171 55.0225 14.6667 55.0143 21.0271C55.006 27.3875 49.7558 32.5394 43.2822 32.5394C40.1614 32.5439 37.1677 31.3249 34.9653 29.1526C32.7627 26.9803 31.5334 24.0345 31.55 20.9683ZM48.9886 20.9683C48.9886 17.8085 46.4517 15.1788 43.2822 15.1788C40.0662 15.1788 37.6192 17.8054 37.6192 20.9683C37.6192 24.1311 40.0662 26.7577 43.2822 26.7577C46.4517 26.7531 48.9901 24.128 48.9901 20.9683L48.9886 20.9683ZM83.0191 9.84197H89.1814V12.3344C90.6297 10.5062 92.8487 9.39706 95.4306 9.39706C100.777 9.39706 103.993 12.7793 103.993 18.52V32.0946H97.6961V19.3214C97.6961 16.3398 96.2911 14.5984 93.5295 14.5984C91.174 14.5984 89.2264 16.1996 89.2264 19.9308V32.0809H83.0238L83.0191 9.84197ZM135.982 20.9683C135.982 13.0902 141.874 9.38953 146.991 9.38953C149.937 9.38953 152.246 10.456 153.74 12.0161V9.84202H159.942V32.0946H153.74V29.6021C152.246 31.3374 149.844 32.5394 146.901 32.5394C142.099 32.5394 135.982 28.8069 135.982 20.9683ZM153.918 20.9241C153.918 17.6303 151.473 14.9595 148.12 14.9595C144.678 14.9595 142.051 17.4962 142.051 20.9241C142.051 24.3521 144.678 26.9314 148.12 26.9314C151.476 26.9314 153.921 24.2165 153.921 20.9242L153.918 20.9241ZM162.451 9.84202H168.612V12.3345C170.062 10.5063 172.281 9.39711 174.863 9.39711C180.208 9.39711 183.424 12.7793 183.424 18.52V32.0946H177.127V19.3214C177.127 16.3398 175.731 14.5984 172.96 14.5984C170.605 14.5984 168.657 16.1996 168.657 19.9308V32.0809H162.454L162.451 9.84202ZM115.155 32.0946V26.6648L127.067 15.2277H115.335V9.84202H135.402V15.3161L123.488 26.7089M24.9302 20.7748L24.845 20.9515C23.1315 24.4998 19.9805 26.5353 16.2001 26.5353C10.7185 26.5353 6.43097 22.2785 6.43097 16.8456C6.43097 11.2741 10.689 7.07378 16.3365 7.07378C19.9961 7.07378 22.7764 8.75724 24.6015 12.0801L24.6992 12.2568L30.2226 8.78776L30.1296 8.63544C27.2609 3.83474 22.1034 0.968994 16.3365 0.968994C7.12099 0.968994 0.172546 7.7959 0.172546 16.8487C0.172546 26.0508 6.97058 32.7299 16.3365 32.7299C22.3732 32.7299 27.7059 29.4376 30.6025 23.9239L30.6893 23.7578L24.9302 20.7748ZM56.5775 20.9683C56.5775 13.0902 62.4699 9.38953 67.587 9.38953C70.5333 9.38953 72.8407 10.5916 74.3355 12.237V9.84202H80.5381V31.4761C80.5381 37.7515 76.5064 42.8248 68.8508 42.8248C63.0979 42.8248 58.8863 39.8859 57.0659 36.4154L62.5474 33.3896C63.7244 35.7039 65.8038 37.1725 68.8431 37.1725C72.1956 37.1725 74.3231 34.5917 74.3231 31.6985V29.6022C72.8283 31.3374 70.4279 32.5394 67.4847 32.5394C62.6917 32.5394 56.5775 28.8069 56.5775 20.9683ZM74.5138 20.9241C74.5138 17.6303 72.0684 14.9595 68.716 14.9595C65.2735 14.9595 62.6467 17.4962 62.6467 20.9241C62.6467 24.3521 65.2735 26.9314 68.716 26.9314C72.0684 26.9314 74.5138 24.2164 74.5138 20.9241ZM198.707 15.3161V9.84202H194.449V2.50167H188.246V9.84202H184.393V15.3161H188.239V22.437C188.239 29.692 190.594 32.0946 197.797 32.0946H198.702V26.3981C194.897 26.3981 194.444 25.8634 194.444 22.3928V15.3161H198.707ZM200.023 5.15714C199.876 5.30252 199.702 5.41785 199.509 5.49653C199.317 5.5752 199.111 5.61567 198.902 5.61561C198.694 5.61567 198.488 5.57521 198.295 5.49653C198.103 5.41786 197.928 5.30252 197.781 5.15714C197.631 5.01396 197.513 4.84214 197.433 4.65221C197.353 4.46228 197.313 4.25824 197.316 4.05261C197.317 3.34869 197.8 2.7335 198.492 2.55255C199.185 2.37159 199.914 2.67001 200.271 3.28016C200.629 3.89031 200.524 4.66011 200.017 5.15714H200.023ZM197.939 3.10803C197.811 3.23085 197.709 3.37831 197.641 3.54131C197.573 3.70431 197.539 3.87938 197.542 4.0557C197.54 4.23261 197.573 4.40827 197.641 4.57214C197.708 4.73601 197.809 4.88472 197.936 5.00936C198.063 5.13456 198.213 5.23389 198.379 5.30166C198.544 5.36942 198.722 5.40428 198.901 5.40423C199.263 5.40423 199.61 5.26208 199.865 5.00941C199.994 4.88534 200.095 4.73679 200.163 4.57281C200.232 4.40884 200.265 4.23287 200.262 4.05565C200.267 3.51204 199.935 3.02005 199.424 2.81186C198.913 2.60362 198.325 2.72079 197.936 3.10803H197.939ZM198.87 3.19482C199.03 3.1867 199.191 3.20737 199.344 3.25582C199.431 3.28948 199.504 3.34985 199.552 3.42786C199.601 3.50587 199.623 3.59732 199.614 3.6885C199.619 3.75455 199.605 3.82061 199.576 3.87999C199.546 3.93937 199.501 3.98997 199.445 4.02667C199.368 4.07046 199.282 4.09845 199.194 4.10897C199.253 4.11472 199.309 4.13262 199.361 4.16149C199.412 4.19037 199.457 4.22957 199.492 4.27656C199.55 4.35249 199.583 4.44469 199.586 4.54016V4.79304C199.586 4.82296 199.591 4.85274 199.6 4.88142L199.611 4.90272H199.324C199.324 4.89714 199.324 4.89153 199.324 4.88596V4.67727C199.334 4.6035 199.325 4.52835 199.296 4.45955C199.267 4.39075 199.22 4.33076 199.16 4.28574C199.052 4.24123 198.935 4.22243 198.819 4.23087H198.577V4.90272H198.267V3.19487L198.87 3.19482ZM199.2 3.46301C199.083 3.41316 198.956 3.39174 198.829 3.40056H198.567V4.01909H198.845C198.944 4.02368 199.042 4.01077 199.136 3.98098C199.185 3.95957 199.227 3.9261 199.259 3.88382C199.291 3.84154 199.311 3.79191 199.317 3.73975C199.323 3.68759 199.316 3.63468 199.295 3.58619C199.275 3.53769 199.242 3.49525 199.2 3.46301Z" fill="#585E67" fill-opacity="0.5"/>
</svg>
