<svg width="147" height="41" viewBox="0 0 147 41" fill="none" xmlns="http://www.w3.org/2000/svg">
<path d="M6.4112 0.703857C5.98632 0.703857 5.62545 1.0123 5.55901 1.43229L0.640992 32.621C0.623122 32.7349 0.630144 32.8514 0.661567 32.9623C0.69299 33.0733 0.748083 33.1761 0.823038 33.2638C0.897992 33.3514 0.991012 33.4218 1.09575 33.47C1.20049 33.5183 1.31446 33.5433 1.42978 33.5433H7.26216C7.68642 33.5433 8.0479 33.2342 8.11434 32.8149L9.55902 23.656C9.62486 23.2367 9.98634 22.9276 10.4112 22.9276H15.7139C21.9095 22.9276 27.1689 18.407 28.1296 12.2814C29.0982 6.10405 24.2723 0.717268 17.4323 0.703857H6.4112ZM12.0808 7.66638H16.3234C19.8163 7.66638 20.9538 9.72734 20.5941 12.0065C20.2345 14.2906 18.4679 15.973 15.0891 15.973H10.7708L12.0808 7.66638ZM39.9919 9.78647C38.5191 9.79195 36.8246 10.0937 34.9221 10.8861C30.5582 12.7051 28.4625 16.4643 27.5725 19.205C27.5725 19.205 24.7398 27.5664 31.1397 32.1602C31.1397 32.1602 37.0751 36.5826 43.7566 31.8877L43.6414 32.621C43.6235 32.7348 43.6305 32.8512 43.6619 32.9621C43.6932 33.0729 43.7482 33.1757 43.823 33.2633C43.8978 33.3509 43.9907 33.4213 44.0953 33.4697C44.1999 33.518 44.3137 33.5431 44.4289 33.5433H49.9657C50.3905 33.5433 50.7514 33.2342 50.8178 32.8149L54.1857 11.4567C54.2038 11.3428 54.197 11.2263 54.1657 11.1153C54.1344 11.0043 54.0795 10.9013 54.0046 10.8136C53.9298 10.7258 53.8368 10.6553 53.7321 10.6069C53.6274 10.5585 53.5135 10.5334 53.3982 10.5332H47.8614C47.4366 10.5332 47.0751 10.8422 47.0093 11.2616L46.8282 12.4113C46.8282 12.4113 44.4106 9.77001 39.9919 9.78647ZM40.1729 16.5326C40.8087 16.5326 41.3902 16.6204 41.912 16.788C44.3009 17.5548 45.6554 19.8499 45.2634 22.3375C44.78 25.4006 42.268 27.6561 39.0464 27.6561C38.4113 27.6561 37.8297 27.5689 37.3073 27.4013C34.919 26.6344 33.556 24.3394 33.948 21.8517C34.4314 18.7886 36.9513 16.5326 40.1729 16.5326Z" fill="#585E67" fill-opacity="0.5"/>
<path d="M86.1429 0.703857C85.718 0.703857 85.3571 1.0123 85.2907 1.43229L80.3727 32.621C80.3548 32.7349 80.3618 32.8514 80.3933 32.9623C80.4247 33.0733 80.4798 33.1761 80.5547 33.2638C80.6297 33.3514 80.7227 33.4218 80.8275 33.47C80.9322 33.5183 81.0462 33.5433 81.1615 33.5433H86.9938C87.4181 33.5433 87.7796 33.2342 87.846 32.8149L89.2907 23.656C89.3565 23.2367 89.718 22.9276 90.1429 22.9276H95.4455C101.641 22.9276 106.9 18.407 107.86 12.2814C108.829 6.10405 104.004 0.717268 97.1639 0.703857H86.1429ZM91.8125 7.66638H96.0551C99.548 7.66638 100.685 9.72734 100.326 12.0065C99.9662 14.2906 98.2002 15.973 94.8208 15.973H90.5026L91.8125 7.66638ZM119.723 9.78647C118.25 9.79195 116.556 10.0937 114.653 10.8861C110.289 12.7051 108.194 16.4643 107.304 19.205C107.304 19.205 104.472 27.5664 110.872 32.1602C110.872 32.1602 116.806 36.5826 123.488 31.8877L123.373 32.621C123.355 32.7349 123.362 32.8514 123.394 32.9623C123.425 33.0733 123.48 33.1761 123.555 33.2638C123.63 33.3514 123.723 33.4218 123.828 33.47C123.933 33.5183 124.047 33.5433 124.162 33.5433H129.698C130.123 33.5433 130.484 33.2342 130.55 32.8149L133.919 11.4567C133.937 11.3427 133.93 11.2261 133.899 11.115C133.868 11.0039 133.813 10.9009 133.738 10.8131C133.663 10.7253 133.57 10.6548 133.465 10.6065C133.36 10.5582 133.246 10.5332 133.13 10.5332H127.594C127.169 10.5332 126.807 10.8422 126.742 11.2616L126.561 12.4113C126.561 12.4113 124.142 9.77001 119.723 9.78647ZM119.904 16.5326C120.54 16.5326 121.121 16.6204 121.643 16.788C124.032 17.5548 125.386 19.8499 124.995 22.3375C124.511 25.4006 121.999 27.6561 118.778 27.6561C118.142 27.6561 117.561 27.5689 117.038 27.4013C114.65 26.6344 113.287 24.3394 113.679 21.8517C114.162 18.7886 116.682 16.5326 119.904 16.5326Z" fill="#585E67" fill-opacity="0.5"/>
<path d="M56.8129 10.5328C56.374 10.5328 56.0619 10.9614 56.196 11.3789L62.2661 30.2153L56.7775 39.0918C56.5111 39.5228 56.8208 40.0794 57.3273 40.0794H63.8144C63.9999 40.0792 64.1823 40.0312 64.3438 39.94C64.5054 39.8488 64.6406 39.7175 64.7367 39.5588L81.6895 11.5142C81.9498 11.0833 81.6389 10.5322 81.1354 10.5322H74.6489C74.4616 10.5324 74.2775 10.5813 74.1148 10.6742C73.9522 10.7671 73.8165 10.9007 73.7211 11.0619L67.0481 22.328L63.6608 11.1455C63.5505 10.7815 63.2146 10.5322 62.8348 10.5322L56.8129 10.5328Z" fill="#585E67" fill-opacity="0.5"/>
<path d="M140.21 0.703857C139.786 0.703857 139.425 1.01291 139.358 1.43229L134.439 32.6198C134.421 32.7338 134.428 32.8504 134.459 32.9615C134.491 33.0726 134.546 33.1756 134.621 33.2634C134.696 33.3512 134.789 33.4216 134.893 33.47C134.998 33.5183 135.112 33.5433 135.228 33.5433H141.06C141.484 33.5433 141.846 33.2342 141.912 32.8149L146.83 1.62614C146.848 1.51231 146.841 1.39597 146.81 1.2851C146.779 1.17423 146.724 1.07146 146.649 0.983836C146.574 0.896217 146.481 0.825827 146.376 0.777498C146.272 0.72917 146.158 0.704049 146.043 0.703857H140.21Z" fill="#585E67" fill-opacity="0.5"/>
</svg>
