<svg width="56" height="45" viewBox="0 0 56 45" fill="none" xmlns="http://www.w3.org/2000/svg">
<path d="M0.176146 45C0.0587153 45 0 44.9217 0 44.7651C0 44.491 0.137003 44.1581 0.41101 43.7665C2.17248 41.3779 4.40367 38.5389 7.10459 35.2497C9.80551 31.9604 12.7804 28.5733 16.0294 25.0882C15.2856 23.1303 14.7376 21.1333 14.3853 19.097C14.033 17.0217 13.8569 15.0834 13.8569 13.2821C13.8569 11.8724 13.9548 10.5998 14.1505 9.46421C14.3853 8.28947 14.6985 7.34968 15.0899 6.64484C15.2856 6.29242 15.6771 5.94 16.2642 5.58758C16.8514 5.23516 17.4973 4.96105 18.2018 4.76526C18.9064 4.53032 19.4936 4.41284 19.9633 4.41284C20.5896 4.41284 20.9028 4.58905 20.9028 4.94147C20.9028 5.0981 20.8049 5.33305 20.6092 5.64631C20.1003 6.46863 19.7089 7.52589 19.4349 8.8181C19.2 10.1103 19.0826 11.5396 19.0826 13.1059C19.0826 15.5728 19.3566 18.216 19.9046 21.0354C22.6838 18.216 25.5609 15.5337 28.5358 12.9884C31.5499 10.4432 34.5639 8.19158 37.578 6.23369C40.6312 4.23663 43.6257 2.68989 46.5615 1.59347C49.5364 0.457893 52.3744 -0.0707379 55.0753 0.0075792C55.2318 0.0075792 55.2906 0.085894 55.2514 0.242524C55.2514 0.399155 55.1731 0.477472 55.0166 0.477472C53.3725 0.438314 51.4153 0.908208 49.145 1.88715C46.9138 2.82695 44.4869 4.13874 41.8643 5.82253C39.2416 7.50631 36.5407 9.46421 33.7615 11.6962C31.5303 13.4583 29.2795 15.3379 27.0092 17.3349C24.778 19.2928 22.586 21.3095 20.433 23.3848C21.0593 25.8126 21.8226 28.1425 22.723 30.3745C23.6624 32.6065 24.6606 34.5057 25.7174 36.072C26.8135 37.6383 27.8704 38.7152 28.8881 39.3025C29.7884 39.7724 30.7083 40.0074 31.6477 40.0074C32.2349 40.0074 32.7829 39.9095 33.2918 39.7137C33.8006 39.5179 34.2116 39.2242 34.5248 38.8326C34.6031 38.7543 34.6814 38.7152 34.7597 38.7152C34.8379 38.7152 34.8967 38.7739 34.9358 38.8914C35.0141 38.9697 35.0141 39.0676 34.9358 39.1851C34.3486 39.9291 33.7028 40.3794 32.9982 40.536C32.2936 40.7318 31.4912 40.8297 30.5908 40.8297C28.8685 40.8297 27.1462 40.2032 25.4239 38.9501C23.7407 37.6579 22.1554 35.9545 20.6679 33.84C19.1804 31.7255 17.8887 29.4347 16.7927 26.9678C14.444 29.2781 12.2324 31.5297 10.1578 33.7225C8.12233 35.9154 6.34129 37.9124 4.81468 39.7137C3.24893 41.5149 2.0159 43.0225 1.1156 44.2364C0.763303 44.7455 0.450153 45 0.176146 45Z" fill="#B9B4B4"/>
</svg>
