<svg width="143" height="45" viewBox="0 0 143 45" fill="none" xmlns="http://www.w3.org/2000/svg">
<path d="M132.354 39.4735C129.36 39.4735 126.948 38.6797 125.116 37.0923C123.284 35.4928 122.368 33.3221 122.368 30.5802H127.972C127.972 31.7708 128.391 32.6908 129.229 33.3402C130.067 33.9776 131.096 34.2962 132.318 34.2962C133.431 34.2962 134.401 34.0196 135.227 33.4665C136.053 32.9133 136.466 32.1737 136.466 31.2477C136.466 30.9229 136.406 30.6283 136.287 30.3637C136.179 30.0992 135.987 29.8647 135.712 29.6602C135.448 29.4558 135.191 29.2814 134.94 29.1371C134.7 28.9928 134.341 28.8485 133.862 28.7041C133.383 28.5598 132.988 28.4516 132.677 28.3794C132.378 28.2953 131.923 28.181 131.312 28.0367C129.157 27.5076 127.6 27.0085 126.643 26.5395C124.368 25.4451 123.087 23.7614 122.799 21.4885C122.752 21.1277 122.728 20.7549 122.728 20.3701C122.728 17.9168 123.56 16.0167 125.224 14.6698C126.9 13.3108 129.181 12.6313 132.066 12.6313C135.011 12.6313 137.292 13.3709 138.909 14.8502C140.537 16.3173 141.351 18.3497 141.351 20.9474H135.838C135.838 19.8891 135.46 19.0833 134.706 18.5301C133.964 17.9649 133.036 17.6823 131.923 17.6823C130.929 17.6823 130.073 17.8927 129.354 18.3136C128.648 18.7346 128.295 19.3419 128.295 20.1356C128.295 20.4843 128.385 20.803 128.564 21.0917C128.756 21.3803 128.977 21.6148 129.229 21.7952C129.48 21.9756 129.857 22.162 130.36 22.3544C130.863 22.5348 131.294 22.6731 131.653 22.7693C132.024 22.8655 132.557 22.9978 133.252 23.1662C133.838 23.3105 134.287 23.4247 134.598 23.5089C134.922 23.5931 135.371 23.7254 135.945 23.9058C136.52 24.0861 136.975 24.2545 137.31 24.4108C137.645 24.5552 138.059 24.7596 138.549 25.0242C139.04 25.2767 139.429 25.5353 139.717 25.7999C140.016 26.0524 140.333 26.3711 140.669 26.7559C141.016 27.1408 141.279 27.5436 141.459 27.9645C141.638 28.3855 141.788 28.8725 141.908 29.4257C142.039 29.9789 142.105 30.5682 142.105 31.1935C142.105 32.5525 141.848 33.7671 141.333 34.8374C140.818 35.9077 140.112 36.7796 139.214 37.4531C138.328 38.1145 137.298 38.6196 136.125 38.9684C134.964 39.3051 133.706 39.4735 132.354 39.4735Z" fill="white"/>
<path d="M119.211 12.6313V17.8637H112.097V38.684H106.57V17.8637H99.4737V12.6313H119.211Z" fill="white"/>
<path d="M97.8948 17.8818H87.8234V23.6047H96.9171V28.7099H87.8234V38.684H82.1053V12.6313H97.8948V17.8818Z" fill="white"/>
<path d="M70.2632 38.684V12.6313H75.7895V38.684H70.2632Z" fill="white"/>
<path d="M51.6412 25.4782H65.5263C65.5263 28.1337 64.9622 30.5261 63.8339 32.6553C62.7177 34.7845 61.1406 36.4531 59.1024 37.6613C57.0764 38.8694 54.7773 39.4735 52.2053 39.4735C50.3128 39.4735 48.5293 39.1385 46.8551 38.4687C45.193 37.7868 43.7615 36.8598 42.5604 35.6876C41.3593 34.5034 40.413 33.0859 39.7215 31.4352C39.03 29.7725 38.6842 27.9902 38.6842 26.0883C38.6842 24.1864 39.0239 22.4041 39.7033 20.7414C40.3827 19.0787 41.3108 17.6553 42.4876 16.4711C43.6644 15.2749 45.0838 14.3359 46.7459 13.6541C48.408 12.9723 50.1914 12.6313 52.0962 12.6313C54.2314 12.6313 56.221 13.05 58.0651 13.8873C59.9213 14.7127 61.4681 15.873 62.7056 17.3682C63.9552 18.8514 64.7802 20.544 65.1805 22.4459H59.3572C58.7991 21.0703 57.8771 19.9818 56.5911 19.1804C55.3051 18.367 53.8432 17.9603 52.2053 17.9603C49.9003 17.9603 48.0198 18.7139 46.564 20.2211C45.1202 21.7282 44.3984 23.684 44.3984 26.0883C44.3984 28.4806 45.1142 30.4244 46.5458 31.9196C47.9773 33.4148 49.8639 34.1624 52.2053 34.1624C53.8917 34.1624 55.4021 33.7617 56.7367 32.9603C58.0712 32.1469 58.9811 31.0763 59.4664 29.7486H51.6412V25.4782Z" fill="white"/>
<path d="M0.176146 45C0.0587153 45 0 44.9217 0 44.7651C0 44.491 0.137003 44.1581 0.41101 43.7665C2.17248 41.3779 4.40367 38.5389 7.10459 35.2497C9.80551 31.9604 12.7804 28.5733 16.0294 25.0882C15.2856 23.1303 14.7376 21.1333 14.3853 19.097C14.033 17.0217 13.8569 15.0834 13.8569 13.2821C13.8569 11.8724 13.9548 10.5998 14.1505 9.46421C14.3853 8.28947 14.6985 7.34968 15.0899 6.64484C15.2856 6.29242 15.6771 5.94 16.2642 5.58758C16.8514 5.23516 17.4973 4.96105 18.2018 4.76526C18.9064 4.53032 19.4936 4.41284 19.9633 4.41284C20.5896 4.41284 20.9028 4.58905 20.9028 4.94147C20.9028 5.0981 20.8049 5.33305 20.6092 5.64631C20.1003 6.46863 19.7089 7.52589 19.4349 8.8181C19.2 10.1103 19.0826 11.5396 19.0826 13.1059C19.0826 15.5728 19.3566 18.216 19.9046 21.0354C22.6838 18.216 25.5609 15.5337 28.5358 12.9884C31.5499 10.4432 34.5639 8.19158 37.578 6.23369C40.6312 4.23663 43.6257 2.68989 46.5615 1.59347C49.5364 0.457893 52.3744 -0.0707379 55.0753 0.0075792C55.2318 0.0075792 55.2906 0.085894 55.2514 0.242524C55.2514 0.399155 55.1731 0.477472 55.0166 0.477472C53.3725 0.438314 51.4153 0.908208 49.145 1.88715C46.9138 2.82695 44.4869 4.13874 41.8643 5.82253C39.2416 7.50631 36.5407 9.46421 33.7615 11.6962C31.5303 13.4583 29.2795 15.3379 27.0092 17.3349C24.778 19.2928 22.586 21.3095 20.433 23.3848C21.0593 25.8126 21.8226 28.1425 22.723 30.3745C23.6624 32.6065 24.6606 34.5057 25.7174 36.072C26.8135 37.6383 27.8704 38.7152 28.8881 39.3025C29.7884 39.7724 30.7083 40.0074 31.6477 40.0074C32.2349 40.0074 32.7829 39.9095 33.2918 39.7137C33.8006 39.5179 34.2116 39.2242 34.5248 38.8326C34.6031 38.7543 34.6814 38.7152 34.7597 38.7152C34.8379 38.7152 34.8967 38.7739 34.9358 38.8914C35.0141 38.9697 35.0141 39.0676 34.9358 39.1851C34.3486 39.9291 33.7028 40.3794 32.9982 40.536C32.2936 40.7318 31.4912 40.8297 30.5908 40.8297C28.8685 40.8297 27.1462 40.2032 25.4239 38.9501C23.7407 37.6579 22.1554 35.9545 20.6679 33.84C19.1804 31.7255 17.8887 29.4347 16.7927 26.9678C14.444 29.2781 12.2324 31.5297 10.1578 33.7225C8.12233 35.9154 6.34129 37.9124 4.81468 39.7137C3.24893 41.5149 2.0159 43.0225 1.1156 44.2364C0.763303 44.7455 0.450153 45 0.176146 45Z" fill="#B9B4B4"/>
</svg>
