<svg width="125" height="40" viewBox="0 0 125 40" fill="none" xmlns="http://www.w3.org/2000/svg">
<path d="M116.024 34.7666C113.375 34.7666 111.241 34.0674 109.62 32.6691C107.999 31.2601 107.189 29.3479 107.189 26.9326H112.146C112.146 27.9814 112.517 28.7918 113.259 29.3638C114 29.9253 114.911 30.206 115.992 30.206C116.977 30.206 117.835 29.9624 118.566 29.4751C119.297 28.9878 119.663 28.3363 119.663 27.5205C119.663 27.2345 119.61 26.975 119.504 26.7419C119.408 26.5089 119.239 26.3023 118.995 26.1222C118.762 25.9421 118.534 25.7885 118.312 25.6614C118.1 25.5342 117.782 25.4071 117.358 25.28C116.935 25.1529 116.585 25.0575 116.31 24.994C116.045 24.9198 115.642 24.8192 115.102 24.692C113.195 24.2259 111.818 23.7863 110.971 23.3731C108.958 22.4091 107.824 20.926 107.57 18.9238C107.528 18.606 107.506 18.2776 107.506 17.9386C107.506 15.7775 108.243 14.1037 109.715 12.9172C111.198 11.7201 113.216 11.1216 115.769 11.1216C118.375 11.1216 120.394 11.7731 121.824 13.0761C123.264 14.3685 123.985 16.1589 123.985 18.4471H119.106C119.106 17.5148 118.773 16.8051 118.105 16.3178C117.449 15.8199 116.628 15.5709 115.642 15.5709C114.763 15.5709 114.006 15.7563 113.37 16.1271C112.745 16.4979 112.432 17.0328 112.432 17.732C112.432 18.0392 112.512 18.32 112.671 18.5742C112.84 18.8285 113.036 19.035 113.259 19.1939C113.481 19.3528 113.815 19.517 114.26 19.6865C114.705 19.8454 115.086 19.9673 115.404 20.052C115.732 20.1368 116.204 20.2533 116.818 20.4016C117.337 20.5287 117.735 20.6294 118.01 20.7035C118.296 20.7777 118.693 20.8942 119.202 21.0531C119.71 21.212 120.113 21.3603 120.409 21.4981C120.706 21.6252 121.072 21.8053 121.506 22.0383C121.94 22.2608 122.285 22.4886 122.539 22.7216C122.804 22.9441 123.084 23.2248 123.381 23.5638C123.688 23.9028 123.921 24.2577 124.08 24.6285C124.239 24.9993 124.371 25.4283 124.477 25.9156C124.594 26.4029 124.652 26.922 124.652 27.4729C124.652 28.67 124.424 29.7399 123.969 30.6827C123.513 31.6256 122.888 32.3936 122.094 32.9869C121.31 33.5695 120.399 34.0145 119.361 34.3217C118.333 34.6183 117.221 34.7666 116.024 34.7666Z" fill="#372A21"/>
<path d="M105.377 11.5347V16.1111H99.0368V34.3216H94.1107V16.1111H87.7863V11.5347H105.377Z" fill="#372A21"/>
<path d="M85.8636 16.127H77.1874V21.1325H85.0214V25.5977H77.1874V34.3216H72.2614V11.5347H85.8636V16.127Z" fill="#372A21"/>
<path d="M62.1232 34.3216V11.5347H67.0493V34.3216H62.1232Z" fill="#372A21"/>
<path d="M46.185 22.4196H58.3095C58.3095 24.7714 57.8169 26.8901 56.8317 28.7758C55.857 30.6614 54.4799 32.1392 52.7001 33.2092C50.931 34.2792 48.9235 34.8141 46.6777 34.8141C45.025 34.8141 43.4678 34.5175 42.0059 33.9243C40.5545 33.3204 39.3045 32.4994 38.2557 31.4612C37.2069 30.4125 36.3806 29.1571 35.7768 27.6952C35.173 26.2227 34.871 24.6442 34.871 22.9598C34.871 21.2755 35.1677 19.697 35.7609 18.2245C36.3541 16.752 37.1646 15.4913 38.1921 14.4426C39.2197 13.3832 40.4592 12.5516 41.9105 11.9477C43.3618 11.3439 44.9191 11.042 46.5823 11.042C48.4468 11.042 50.1841 11.4128 51.7944 12.1543C53.4152 12.8853 54.7659 13.9129 55.8465 15.2371C56.9376 16.5507 57.658 18.0497 58.0076 19.7341H52.9226C52.4353 18.5158 51.6302 17.5518 50.5073 16.842C49.3843 16.1216 48.1078 15.7615 46.6777 15.7615C44.6649 15.7615 43.0228 16.4289 41.7516 17.7637C40.491 19.0985 39.8606 20.8305 39.8606 22.9598C39.8606 25.0786 40.4857 26.8 41.7357 28.1242C42.9858 29.4485 44.6331 30.1106 46.6777 30.1106C48.1502 30.1106 49.4691 29.7557 50.6344 29.0459C51.7997 28.3255 52.5942 27.3774 53.018 26.2015H46.185V22.4196Z" fill="#372A21"/>
<path d="M0.905434 39.1799C0.803154 39.1799 0.752014 39.1117 0.752014 38.9753C0.752014 38.7367 0.871341 38.4469 1.10999 38.106C2.6442 36.0263 4.58752 33.5545 6.93996 30.6906C9.29241 27.8268 11.8835 24.8777 14.7133 21.8434C14.0655 20.1387 13.5882 18.4 13.2813 16.6271C12.9745 14.8202 12.8211 13.1325 12.8211 11.5643C12.8211 10.3369 12.9063 9.22886 13.0768 8.24015C13.2813 7.21735 13.5541 6.39911 13.895 5.78543C14.0655 5.47859 14.4064 5.17174 14.9178 4.8649C15.4292 4.55806 15.9918 4.31941 16.6054 4.14894C17.2191 3.94438 17.7305 3.8421 18.1396 3.8421C18.6851 3.8421 18.9579 3.99552 18.9579 4.30236C18.9579 4.43874 18.8726 4.6433 18.7022 4.91604C18.259 5.63201 17.918 6.55253 17.6794 7.67761C17.4748 8.80269 17.3725 10.0471 17.3725 11.4108C17.3725 13.5587 17.6112 15.86 18.0885 18.3147C20.5091 15.86 23.015 13.5246 25.6061 11.3086C28.2313 9.09248 30.8565 7.13211 33.4817 5.42745C36.1409 3.68868 38.7491 2.34199 41.3061 1.38738C43.8972 0.398671 46.369 -0.061589 48.7214 0.00659894C48.8578 0.00659894 48.9089 0.0747848 48.8748 0.211157C48.8748 0.34753 48.8066 0.415718 48.6703 0.415718C47.2383 0.381625 45.5337 0.790744 43.5563 1.64308C41.6129 2.46132 39.4991 3.60345 37.2149 5.06947C34.9306 6.53548 32.5782 8.24015 30.1576 10.1835C28.2142 11.7177 26.2539 13.3542 24.2764 15.0929C22.3331 16.7976 20.4239 18.5534 18.5488 20.3603C19.0943 22.4741 19.7591 24.5027 20.5432 26.446C21.3615 28.3893 22.2308 30.0429 23.1514 31.4066C24.106 32.7703 25.0265 33.7079 25.9129 34.2193C26.6971 34.6284 27.4983 34.833 28.3165 34.833C28.8279 34.833 29.3052 34.7478 29.7484 34.5773C30.1917 34.4068 30.5496 34.1511 30.8224 33.8102C30.8906 33.742 30.9587 33.7079 31.0269 33.7079C31.0951 33.7079 31.1463 33.759 31.1804 33.8613C31.2485 33.9295 31.2485 34.0147 31.1804 34.117C30.669 34.7648 30.1064 35.1569 29.4927 35.2932C28.8791 35.4637 28.1801 35.549 27.396 35.549C25.8959 35.549 24.3958 35.0035 22.8957 33.9125C21.4297 32.7874 20.0489 31.3043 18.7533 29.4633C17.4578 27.6222 16.3327 25.6278 15.3781 23.4799C13.3325 25.4914 11.4062 27.4518 9.59925 29.361C7.82639 31.2702 6.27514 33.009 4.9455 34.5773C3.58176 36.1456 2.50782 37.4582 1.72368 38.5151C1.41684 38.9583 1.14409 39.1799 0.905434 39.1799Z" fill="#5E090A"/>
</svg>
