<svg width="130" height="22" viewBox="0 0 130 22" fill="none" xmlns="http://www.w3.org/2000/svg">
<path d="M11.8249 2.38332L13.9332 6.96665C14.0249 7.24165 14.2999 7.42499 14.5749 7.51665L19.3416 8.24999C20.1666 8.24999 20.4416 9.16665 19.8916 9.71665L16.4082 13.2917C16.2249 13.475 16.1332 13.8417 16.1332 14.1167L16.9582 19.0667C17.0499 19.8 16.3166 20.4417 15.6749 20.075L11.3666 17.6917C11.0916 17.5083 10.8166 17.5083 10.5416 17.6917L6.23322 20.075C5.59155 20.4417 4.76655 19.8917 4.94989 19.0667L5.77489 14.1167C5.86655 13.8417 5.68322 13.475 5.49989 13.2917L2.01655 9.71665C1.55822 9.16665 1.83322 8.24999 2.56655 8.15832L7.33322 7.42499C7.60822 7.42499 7.88322 7.14999 7.97489 6.87499L10.0832 2.29165C10.5416 1.64999 11.4582 1.64999 11.8249 2.38332Z" fill="#5E090A"/>
<path d="M38.8249 2.38332L40.9332 6.96665C41.0249 7.24165 41.2999 7.42499 41.5749 7.51665L46.3416 8.24999C47.1666 8.24999 47.4416 9.16665 46.8916 9.71665L43.4082 13.2917C43.2249 13.475 43.1332 13.8417 43.1332 14.1167L43.9582 19.0667C44.0499 19.8 43.3166 20.4417 42.6749 20.075L38.3666 17.6917C38.0916 17.5083 37.8166 17.5083 37.5416 17.6917L33.2332 20.075C32.5916 20.4417 31.7666 19.8917 31.9499 19.0667L32.7749 14.1167C32.8666 13.8417 32.6832 13.475 32.4999 13.2917L29.0166 9.71665C28.5582 9.16665 28.8332 8.24999 29.5666 8.15832L34.3332 7.42499C34.6082 7.42499 34.8832 7.14999 34.9749 6.87499L37.0832 2.29165C37.5416 1.64999 38.4582 1.64999 38.8249 2.38332Z" fill="#5E090A"/>
<path d="M68.4168 7.991L68.457 8.0044L68.4989 8.01084L73.2655 8.74417L73.3033 8.74999H73.3416C73.5422 8.74999 73.6267 8.84531 73.6597 8.94063C73.6985 9.05283 73.6812 9.21986 73.538 9.3631L73.538 9.36307L73.5334 9.36772L70.052 12.9408C69.8817 13.1124 69.782 13.3345 69.7241 13.5227C69.6637 13.719 69.6332 13.9289 69.6332 14.1167V14.158L69.64 14.1989L70.4631 19.1371C70.4826 19.3184 70.4014 19.4929 70.2749 19.5963C70.1552 19.6943 70.0345 19.7046 69.923 19.6409L69.923 19.6408L69.9169 19.6375L65.6249 17.2632C65.4266 17.1351 65.2008 17.0542 64.9541 17.0542C64.7073 17.0542 64.4815 17.1351 64.2832 17.2632L59.9912 19.6375L59.9912 19.6374L59.9852 19.6409C59.7223 19.7911 59.3483 19.5786 59.438 19.1751L59.4409 19.1621L59.4431 19.1489L60.2628 14.2304C60.34 13.955 60.2822 13.6852 60.2072 13.4903C60.1262 13.2798 59.9979 13.0834 59.856 12.9407L56.3908 9.38423C56.2915 9.25621 56.2668 9.08054 56.319 8.92373C56.3706 8.76912 56.4805 8.67297 56.6286 8.65446L56.6356 8.65358L56.6426 8.65251L61.3787 7.92388C61.6601 7.91014 61.895 7.77081 62.0573 7.62476C62.2244 7.47439 62.3619 7.27602 62.4391 7.06229L64.5151 2.54925C64.6483 2.38322 64.8228 2.31645 64.9712 2.32157C65.1181 2.32663 65.2727 2.40181 65.3745 2.60062L67.4691 7.15423C67.6417 7.62889 68.086 7.88073 68.4168 7.991Z" fill="white" stroke="#5E090A"/>
<path d="M95.4168 7.991L95.457 8.0044L95.4989 8.01084L100.266 8.74417L100.303 8.74999H100.342C100.542 8.74999 100.627 8.84531 100.66 8.94063C100.699 9.05283 100.681 9.21986 100.538 9.3631L100.538 9.36307L100.533 9.36772L97.052 12.9408C96.8817 13.1124 96.782 13.3345 96.7241 13.5227C96.6637 13.719 96.6332 13.9289 96.6332 14.1167V14.158L96.64 14.1989L97.4631 19.1371C97.4826 19.3184 97.4014 19.4929 97.2749 19.5963C97.1552 19.6943 97.0345 19.7046 96.923 19.6409L96.923 19.6408L96.9169 19.6375L92.6249 17.2632C92.4266 17.1351 92.2008 17.0542 91.9541 17.0542C91.7073 17.0542 91.4815 17.1351 91.2832 17.2632L86.9912 19.6375L86.9912 19.6374L86.9852 19.6409C86.7223 19.7911 86.3483 19.5786 86.438 19.1751L86.4409 19.1621L86.4431 19.1489L87.2628 14.2304C87.34 13.955 87.2822 13.6852 87.2072 13.4903C87.1262 13.2798 86.9979 13.0834 86.856 12.9407L83.3908 9.38423C83.2915 9.25621 83.2668 9.08054 83.319 8.92373C83.3706 8.76912 83.4805 8.67297 83.6286 8.65446L83.6356 8.65358L83.6426 8.65251L88.3787 7.92388C88.6601 7.91014 88.895 7.77081 89.0573 7.62476C89.2244 7.47439 89.3619 7.27602 89.4391 7.06229L91.5151 2.54925C91.6483 2.38322 91.8228 2.31645 91.9712 2.32157C92.1181 2.32663 92.2727 2.40181 92.3745 2.60062L94.4691 7.15423C94.6417 7.62889 95.086 7.88073 95.4168 7.991Z" fill="white" stroke="#5E090A"/>
<path d="M122.417 7.991L122.457 8.0044L122.499 8.01084L127.266 8.74417L127.303 8.74999H127.342C127.542 8.74999 127.627 8.84531 127.66 8.94063C127.699 9.05283 127.681 9.21986 127.538 9.3631L127.538 9.36307L127.533 9.36772L124.052 12.9408C123.882 13.1124 123.782 13.3345 123.724 13.5227C123.664 13.719 123.633 13.9289 123.633 14.1167V14.158L123.64 14.1989L124.463 19.1371C124.483 19.3184 124.401 19.4929 124.275 19.5963C124.155 19.6943 124.035 19.7046 123.923 19.6409L123.923 19.6408L123.917 19.6375L119.625 17.2632C119.427 17.1351 119.201 17.0542 118.954 17.0542C118.707 17.0542 118.481 17.1351 118.283 17.2632L113.991 19.6375L113.991 19.6374L113.985 19.6409C113.722 19.7911 113.348 19.5786 113.438 19.1751L113.441 19.1621L113.443 19.1489L114.263 14.2304C114.34 13.955 114.282 13.6852 114.207 13.4903C114.126 13.2798 113.998 13.0834 113.856 12.9407L110.391 9.38423C110.292 9.25621 110.267 9.08054 110.319 8.92373C110.371 8.76912 110.481 8.67297 110.629 8.65446L110.636 8.65358L110.643 8.65251L115.379 7.92388C115.66 7.91014 115.895 7.77081 116.057 7.62476C116.224 7.47439 116.362 7.27602 116.439 7.06229L118.515 2.54925C118.648 2.38322 118.823 2.31645 118.971 2.32157C119.118 2.32663 119.273 2.40181 119.374 2.60062L121.469 7.15423C121.642 7.62889 122.086 7.88073 122.417 7.991Z" fill="white" stroke="#5E090A"/>
</svg>
