<svg width="130" height="22" viewBox="0 0 130 22" fill="none" xmlns="http://www.w3.org/2000/svg">
<path d="M11.8249 2.38332L13.9332 6.96665C14.0249 7.24165 14.2999 7.42499 14.5749 7.51665L19.3416 8.24999C20.1666 8.24999 20.4416 9.16665 19.8916 9.71665L16.4082 13.2917C16.2249 13.475 16.1332 13.8417 16.1332 14.1167L16.9582 19.0667C17.0499 19.8 16.3166 20.4417 15.6749 20.075L11.3666 17.6917C11.0916 17.5083 10.8166 17.5083 10.5416 17.6917L6.23322 20.075C5.59155 20.4417 4.76655 19.8917 4.94989 19.0667L5.77489 14.1167C5.86655 13.8417 5.68322 13.475 5.49989 13.2917L2.01655 9.71665C1.55822 9.16665 1.83322 8.24999 2.56655 8.15832L7.33322 7.42499C7.60822 7.42499 7.88322 7.14999 7.97489 6.87499L10.0832 2.29165C10.5416 1.64999 11.4582 1.64999 11.8249 2.38332Z" fill="#5E090A"/>
<path d="M38.8249 2.38332L40.9332 6.96665C41.0249 7.24165 41.2999 7.42499 41.5749 7.51665L46.3416 8.24999C47.1666 8.24999 47.4416 9.16665 46.8916 9.71665L43.4082 13.2917C43.2249 13.475 43.1332 13.8417 43.1332 14.1167L43.9582 19.0667C44.0499 19.8 43.3166 20.4417 42.6749 20.075L38.3666 17.6917C38.0916 17.5083 37.8166 17.5083 37.5416 17.6917L33.2332 20.075C32.5916 20.4417 31.7666 19.8917 31.9499 19.0667L32.7749 14.1167C32.8666 13.8417 32.6832 13.475 32.4999 13.2917L29.0166 9.71665C28.5582 9.16665 28.8332 8.24999 29.5666 8.15832L34.3332 7.42499C34.6082 7.42499 34.8832 7.14999 34.9749 6.87499L37.0832 2.29165C37.5416 1.64999 38.4582 1.64999 38.8249 2.38332Z" fill="#5E090A"/>
<path d="M65.8249 2.38332L67.9332 6.96665C68.0249 7.24165 68.2999 7.42499 68.5749 7.51665L73.3416 8.24999C74.1666 8.24999 74.4416 9.16665 73.8916 9.71665L70.4082 13.2917C70.2249 13.475 70.1332 13.8417 70.1332 14.1167L70.9582 19.0667C71.0499 19.8 70.3166 20.4417 69.6749 20.075L65.3666 17.6917C65.0916 17.5083 64.8166 17.5083 64.5416 17.6917L60.2332 20.075C59.5916 20.4417 58.7666 19.8917 58.9499 19.0667L59.7749 14.1167C59.8666 13.8417 59.6832 13.475 59.4999 13.2917L56.0166 9.71665C55.5582 9.16665 55.8332 8.24999 56.5666 8.15832L61.3332 7.42499C61.6082 7.42499 61.8832 7.14999 61.9749 6.87499L64.0832 2.29165C64.5416 1.64999 65.4582 1.64999 65.8249 2.38332Z" fill="#5E090A"/>
<path d="M92.8249 2.38332L94.9332 6.96665C95.0249 7.24165 95.2999 7.42499 95.5749 7.51665L100.342 8.24999C101.167 8.24999 101.442 9.16665 100.892 9.71665L97.4082 13.2917C97.2249 13.475 97.1332 13.8417 97.1332 14.1167L97.9582 19.0667C98.0499 19.8 97.3166 20.4417 96.6749 20.075L92.3666 17.6917C92.0916 17.5083 91.8166 17.5083 91.5416 17.6917L87.2332 20.075C86.5916 20.4417 85.7666 19.8917 85.9499 19.0667L86.7749 14.1167C86.8666 13.8417 86.6832 13.475 86.4999 13.2917L83.0166 9.71665C82.5582 9.16665 82.8332 8.24999 83.5666 8.15832L88.3332 7.42499C88.6082 7.42499 88.8832 7.14999 88.9749 6.87499L91.0832 2.29165C91.5416 1.64999 92.4582 1.64999 92.8249 2.38332Z" fill="#5E090A"/>
<path d="M119.825 2.38332L121.933 6.96665C122.025 7.24165 122.3 7.42499 122.575 7.51665L127.342 8.24999C128.167 8.24999 128.442 9.16665 127.892 9.71665L124.408 13.2917C124.225 13.475 124.133 13.8417 124.133 14.1167L124.958 19.0667C125.05 19.8 124.317 20.4417 123.675 20.075L119.367 17.6917C119.092 17.5083 118.817 17.5083 118.542 17.6917L114.233 20.075C113.592 20.4417 112.767 19.8917 112.95 19.0667L113.775 14.1167C113.867 13.8417 113.683 13.475 113.5 13.2917L110.017 9.71665C109.558 9.16665 109.833 8.24999 110.567 8.15832L115.333 7.42499C115.608 7.42499 115.883 7.14999 115.975 6.87499L118.083 2.29165C118.542 1.64999 119.458 1.64999 119.825 2.38332Z" fill="#5E090A"/>
</svg>
