<svg width="20" height="25" viewBox="0 0 20 25" fill="none" xmlns="http://www.w3.org/2000/svg">
<g clip-path="url(#clip0_417_629)">
<path d="M16.7226 13.1112C16.6966 10.0155 19.272 8.48059 19.3761 8.42856C17.9193 6.29537 15.656 6.00921 14.8756 5.98319C12.9765 5.77508 11.1295 7.12783 10.1669 7.12783C9.20438 7.12783 7.69553 6.00921 6.08263 6.03522C4.02748 6.06124 2.07638 7.25791 1.0358 9.10494C-1.14942 12.8771 0.489496 18.4442 2.57066 21.5139C3.61124 23.0227 4.83393 24.6877 6.44683 24.6356C8.00771 24.5836 8.60604 23.6471 10.4791 23.6471C12.3521 23.6471 12.8984 24.6356 14.5374 24.6096C16.2283 24.5836 17.2689 23.1008 18.2835 21.5919C19.5061 19.875 19.9744 18.184 20.0004 18.106C19.9744 18.054 16.7486 16.8313 16.7226 13.1112Z" fill="white"/>
<path d="M13.6268 3.95421C14.4593 2.88762 15.0576 1.45682 14.8755 0C13.6528 0.0520291 12.118 0.832466 11.2595 1.87305C10.479 2.78356 9.77665 4.26639 9.95875 5.67118C11.3635 5.80125 12.7683 4.9948 13.6268 3.95421Z" fill="white"/>
</g>
<defs>
<clipPath id="clip0_417_629">
<rect width="20" height="24.6358" fill="white"/>
</clipPath>
</defs>
</svg>
