<svg width="26" height="15" viewBox="0 0 26 15" fill="none" xmlns="http://www.w3.org/2000/svg">
<path d="M25.8889 7.39939C25.8127 7.46143 25.7309 7.51788 25.6618 7.58705C23.4581 9.80231 21.2559 12.0186 19.0547 14.2364C18.9841 14.3076 18.9286 14.394 18.8892 14.4444C18.4805 14.0365 18.103 13.6597 17.7149 13.2722C19.3636 11.6143 21.0475 9.9208 22.7854 8.1729H0.111084V6.53587H22.6931C21.0041 4.8373 19.3222 3.14584 17.665 1.4788C18.0914 1.04603 18.4658 0.665627 18.9023 0.222168C18.9311 0.269463 18.9684 0.371683 19.0381 0.441863C21.2438 2.66679 23.4525 4.88917 25.6618 7.11002C25.7309 7.17919 25.8127 7.23513 25.8889 7.29768V7.39888V7.39939Z" fill="#CC010C"/>
</svg>
