<svg width="16" height="18" viewBox="0 0 16 18" fill="none" xmlns="http://www.w3.org/2000/svg">
<path d="M11.1012 4.6742C11.7923 4.6742 12.4562 4.6742 13.1134 4.6742C13.6283 4.6742 13.7231 4.7555 13.7841 5.25007C14.2312 8.65109 14.6784 12.0453 15.1255 15.4464C15.1662 15.758 15.2339 16.0629 15.2475 16.3745C15.2543 16.5303 15.2001 16.7133 15.112 16.8352C14.9765 17.0249 14.7936 17.1875 14.6106 17.3298C14.5158 17.4043 14.3667 17.4517 14.238 17.4517C9.90882 17.4585 5.57964 17.4585 1.25045 17.4517C1.11495 17.4517 0.945577 17.384 0.843953 17.2959C0.180008 16.7133 0.193558 16.7133 0.308732 15.8664C0.627154 13.4952 0.932026 11.1172 1.24367 8.73916C1.3995 7.55355 1.55532 6.37471 1.71114 5.18909C1.77212 4.7555 1.88052 4.66742 2.32766 4.66742C2.99161 4.66742 3.64878 4.66065 4.31272 4.66065C4.32627 4.66065 4.33982 4.6471 4.38725 4.63355C4.38725 4.40997 4.38725 4.17963 4.38725 3.9425C4.39402 2.07939 5.68803 0.66343 7.53759 0.507607C9.33973 0.351783 11.0335 1.86937 11.0944 3.69183C11.108 4.00348 11.1012 4.31512 11.1012 4.6742ZM12.9846 5.49396C12.8966 5.48719 12.8627 5.48719 12.8288 5.48719C9.46168 5.48719 6.08776 5.48719 2.72061 5.48041C2.50381 5.48041 2.47671 5.58204 2.45639 5.75141C2.23281 7.49935 1.99569 9.24051 1.76534 10.9884C1.535 12.7093 1.31142 14.4301 1.08785 16.1509C1.04043 16.4897 1.19625 16.6591 1.535 16.6591C5.67449 16.6591 9.81397 16.6591 13.9535 16.6591C14.2719 16.6591 14.4413 16.4829 14.4006 16.1713C14.2583 15.0873 14.1161 14.0101 13.9738 12.9261C13.7096 10.941 13.4521 8.94919 13.1879 6.96413C13.1201 6.46956 13.0524 5.98176 12.9846 5.49396ZM5.17991 4.6471C6.9143 4.6471 8.59448 4.6471 10.2882 4.6471C10.2882 4.3219 10.3018 4.01025 10.2882 3.6986C10.2408 2.44524 9.20423 1.4019 7.92377 1.31382C6.66363 1.22575 5.46446 2.14037 5.26799 3.37341C5.20024 3.78668 5.20701 4.20673 5.17991 4.6471Z" fill="black"/>
</svg>
