<svg width="16" height="17" viewBox="0 0 16 17" fill="none" xmlns="http://www.w3.org/2000/svg">
                                <path d="M1.72117 1.54134C1.33081 1.54134 0.949755 1.54599 0.568694 1.54134C0.159752 1.53669 -0.109779 1.14634 0.0435745 0.77922C0.131869 0.560808 0.303811 0.435337 0.540812 0.430689C1.10776 0.426042 1.67935 0.421395 2.24629 0.430689C2.53906 0.435337 2.75282 0.649102 2.78535 0.946515C2.8597 1.62499 2.92941 2.30811 2.99912 2.98658C3.00841 3.05629 3.0177 3.12599 3.03165 3.21429C3.106 3.21429 3.18035 3.21429 3.2547 3.21429C7.11643 3.21429 10.9781 3.21429 14.8399 3.21429C15.4347 3.21429 15.9041 3.56282 15.9877 4.11582C16.0202 4.33888 15.9831 4.57588 15.9366 4.79894C15.5137 6.79254 15.0908 8.78614 14.654 10.7797C14.4774 11.5976 13.8175 12.1181 12.981 12.1181C10.1184 12.1181 7.25119 12.1181 4.38859 12.1181C3.45918 12.1181 2.77141 11.4768 2.67847 10.5567C2.51582 8.95343 2.33923 7.35019 2.17194 5.75159C2.02788 4.38071 1.88382 3.00982 1.7444 1.63428C1.73511 1.61569 1.73046 1.59246 1.72117 1.54134ZM3.13853 4.33424C3.20823 4.97089 3.27329 5.5843 3.33835 6.20236C3.48706 7.61972 3.63577 9.03708 3.78912 10.4544C3.83094 10.8262 4.03541 11.0074 4.41647 11.0074C7.26513 11.0074 10.1091 11.0074 12.9578 11.0074C13.311 11.0074 13.5062 10.8494 13.5805 10.5009C13.9383 8.83261 14.2962 7.15966 14.654 5.49136C14.7376 5.1103 14.8166 4.72459 14.9003 4.33424C10.9735 4.33424 7.06531 4.33424 3.13853 4.33424Z" fill="white"></path>
                                <path d="M3.34277 14.911C3.34277 13.9909 4.09095 13.238 5.00643 13.238C5.92655 13.238 6.67938 13.9862 6.67938 14.9017C6.67938 15.8218 5.9312 16.5746 5.01572 16.5746C4.10025 16.5793 3.34277 15.8265 3.34277 14.911ZM5.00643 15.4593C5.30849 15.4593 5.56408 15.213 5.56408 14.911C5.56872 14.6089 5.32243 14.3533 5.02037 14.3487C4.71366 14.344 4.45342 14.5996 4.45342 14.9063C4.45807 15.2084 4.70901 15.4593 5.00643 15.4593Z" fill="white"></path>
                                <path d="M11.6893 16.5746C10.7738 16.5746 10.021 15.8218 10.021 14.9016C10.021 13.9862 10.7738 13.2333 11.6939 13.2333C12.6141 13.2333 13.3622 13.9862 13.3622 14.9063C13.3622 15.8264 12.6094 16.5746 11.6893 16.5746ZM11.6893 14.3486C11.3872 14.3486 11.1363 14.5996 11.1363 14.9016C11.1363 15.2037 11.3826 15.4546 11.6846 15.4593C11.9914 15.4639 12.2516 15.2037 12.2469 14.897C12.2469 14.5949 11.9914 14.3486 11.6893 14.3486Z" fill="white"></path>
                            </svg>