<svg width="22" height="22" viewBox="0 0 22 22" fill="none" xmlns="http://www.w3.org/2000/svg">
<g clip-path="url(#clip0_417_621)">
<path d="M11 21.542C16.822 21.542 21.542 16.822 21.542 11C21.542 5.17801 16.822 0.458008 11 0.458008C5.17801 0.458008 0.458008 5.17801 0.458008 11C0.458008 16.822 5.17801 21.542 11 21.542Z" fill="#1877F2"/>
<path d="M15.1038 14.0472L15.5698 11.0002H12.6458V9.02317C12.6458 8.18917 13.0548 7.37617 14.3638 7.37617H15.6938V4.78217C14.9132 4.65593 14.1244 4.58708 13.3338 4.57617C10.9258 4.57617 9.3518 6.03617 9.3518 8.67817V11.0002H6.6748V14.0472H9.3518V21.4132C10.4428 21.5842 11.5548 21.5842 12.6458 21.4132V14.0472H15.1038Z" fill="white"/>
</g>
<defs>
<clipPath id="clip0_417_621">
<rect width="22" height="22" fill="white"/>
</clipPath>
</defs>
</svg>
