<svg width="21" height="22" viewBox="0 0 21 22" fill="none" xmlns="http://www.w3.org/2000/svg">
<g clip-path="url(#clip0_417_624)">
<path d="M10.4977 4.79478C11.9555 4.79371 13.3665 5.30882 14.4808 6.24878L17.6007 3.27678C16.4028 2.17215 14.9638 1.36195 13.3981 0.91047C11.8324 0.458991 10.183 0.378664 8.58079 0.675865C6.9786 0.973066 5.46774 1.63961 4.16811 2.62261C2.86847 3.6056 1.81584 4.87799 1.09375 6.33878L4.61275 9.05078C5.02303 7.81358 5.81215 6.73681 6.86835 5.97297C7.92455 5.20913 9.19429 4.79694 10.4977 4.79478Z" fill="#D94F3D"/>
<path d="M4.29507 10.9979C4.29507 10.3359 4.40307 9.67787 4.61307 9.05087L1.09407 6.33887C0.374477 7.78654 0 9.38122 0 10.9979C0 12.6145 0.374477 14.2092 1.09407 15.6569L4.61307 12.9449C4.4034 12.3171 4.29603 11.6597 4.29507 10.9979Z" fill="#F2C042"/>
<path d="M20.5669 9.08987H10.5459V13.3839H16.2239C15.8861 14.5979 15.1124 15.6447 14.0509 16.3239L17.5409 19.0159C19.7729 17.0139 21.0829 13.7589 20.5669 9.08987Z" fill="#5085ED"/>
<path d="M14.0497 16.3243C12.9706 16.942 11.7403 17.2458 10.4977 17.2013C9.19412 17.1994 7.92416 16.7873 6.86776 16.0234C5.81136 15.2596 5.02209 14.1827 4.61175 12.9453L1.09375 15.6573C1.96271 17.4093 3.30323 18.884 4.96457 19.9157C6.6259 20.9475 8.54213 21.4952 10.4977 21.4973C13.0707 21.5673 15.5788 20.6823 17.5398 19.0153L14.0497 16.3253V16.3243Z" fill="#57A75C"/>
</g>
<defs>
<clipPath id="clip0_417_624">
<rect width="21" height="22" fill="white"/>
</clipPath>
</defs>
</svg>
