<svg width="19" height="16" viewBox="0 0 19 16" fill="none" xmlns="http://www.w3.org/2000/svg">
<path d="M9.32102 15.9298C6.76775 14.1109 4.37673 12.1298 2.42549 9.67047C1.5801 8.60305 0.858523 7.46304 0.50414 6.12237C-0.243053 3.31719 1.56729 0.494935 4.44505 0.085046C6.41764 -0.196753 8.00169 0.546172 9.16304 2.16865C9.21855 2.2455 9.26551 2.32236 9.33383 2.4291C9.38079 2.36078 9.41922 2.30528 9.45338 2.25404C10.5379 0.56752 12.4635 -0.218101 14.2568 0.0893159C16.3019 0.443699 17.8006 1.87831 18.2276 3.83809C18.488 5.04641 18.2574 6.19068 17.7451 7.29226C17.1687 8.53473 16.3532 9.61496 15.448 10.6311C13.6633 12.6251 11.6224 14.3287 9.4363 15.8615C9.40214 15.8786 9.37225 15.8957 9.32102 15.9298ZM8.70618 4.84146C8.68911 4.68776 8.6763 4.55966 8.65922 4.43584C8.38169 1.86123 5.43561 0.465047 3.24954 1.87404C1.80212 2.80483 1.25987 4.55113 1.88751 6.259C2.28886 7.35203 2.94639 8.29563 3.68078 9.18372C4.98303 10.7635 6.49449 12.1298 8.09135 13.4022C8.50124 13.7267 8.91967 14.0426 9.33383 14.3628C11.379 12.8343 13.3004 11.2075 14.9271 9.25631C15.606 8.4408 16.2165 7.57833 16.6435 6.60057C16.968 5.85765 17.1345 5.09338 17.0064 4.27787C16.746 2.61696 15.3413 1.39157 13.6035 1.31044C12.0195 1.23786 10.4994 2.37359 10.1024 3.94056C10.0298 4.2309 9.99563 4.53405 9.94439 4.84146C9.5345 4.84146 9.12461 4.84146 8.70618 4.84146Z" fill="black"/>
</svg>
