<svg width="19" height="16" viewBox="0 0 19 16" fill="none" xmlns="http://www.w3.org/2000/svg">
<path d="M9.23361 15.9298C6.68035 14.1109 4.28933 12.1298 2.33809 9.67047C1.4927 8.60305 0.771121 7.46304 0.416738 6.12237C-0.330456 3.31719 1.47989 0.494935 4.35765 0.085046C6.33024 -0.196753 7.91429 0.546172 9.07564 2.16865C9.13114 2.2455 9.17811 2.32236 9.24642 2.4291C9.29339 2.36078 9.33182 2.30528 9.36597 2.25404C10.4505 0.56752 12.3761 -0.218101 14.1694 0.0893159C16.2145 0.443699 17.7132 1.87831 18.1402 3.83809C18.4006 5.04641 18.17 6.19068 17.6577 7.29226C17.0813 8.53473 16.2658 9.61496 15.3606 10.6311C13.5759 12.6251 11.535 14.3287 9.3489 15.8615C9.31474 15.8786 9.28485 15.8957 9.23361 15.9298ZM8.61878 4.84146C8.6017 4.68776 8.58889 4.55966 8.57181 4.43584C8.29429 1.86123 5.34821 0.465047 3.16214 1.87404C1.71472 2.80483 1.17247 4.55113 1.80011 6.259C2.20146 7.35203 2.85899 8.29563 3.59338 9.18372C4.89563 10.7635 6.40709 12.1298 8.00395 13.4022C8.41384 13.7267 8.83227 14.0426 9.24642 14.3628C11.2916 12.8343 13.213 11.2075 14.8397 9.25631C15.5186 8.4408 16.1291 7.57833 16.5561 6.60057C16.8806 5.85765 17.0471 5.09338 16.919 4.27787C16.6586 2.61696 15.2539 1.39157 13.5161 1.31044C11.9321 1.23786 10.412 2.37359 10.015 3.94056C9.94238 4.2309 9.90822 4.53405 9.85699 4.84146C9.4471 4.84146 9.03721 4.84146 8.61878 4.84146Z" fill="black"/>
</svg>
