<svg width="16" height="16" viewBox="0 0 16 16" fill="none" xmlns="http://www.w3.org/2000/svg">
<path d="M10.4419 5.94101L10.4821 5.95441L10.524 5.96085L13.9906 6.49419L14.0284 6.5H14.0667C14.1212 6.5 14.1433 6.51403 14.1492 6.51817C14.1565 6.52336 14.1639 6.53162 14.1692 6.54689C14.1799 6.57784 14.1814 6.64487 14.1131 6.71312L14.1131 6.71309L14.1086 6.71774L11.5771 9.31584C11.4318 9.46234 11.3509 9.64695 11.3055 9.79463C11.2576 9.95023 11.2333 10.1164 11.2333 10.2667V10.308L11.2401 10.3489L11.838 13.9359C11.8456 14.0179 11.808 14.0989 11.7501 14.1464C11.7226 14.1688 11.7003 14.1755 11.689 14.1769C11.6817 14.1778 11.6701 14.1785 11.6481 14.1659L11.6481 14.1658L11.642 14.1625L8.52453 12.4379C8.36346 12.3348 8.17535 12.2667 7.96667 12.2667C7.758 12.2667 7.56989 12.3348 7.40882 12.4379L4.29131 14.1625L4.29129 14.1624L4.28527 14.1659C4.2372 14.1933 4.1838 14.1895 4.13887 14.1562C4.11706 14.1401 4.10071 14.1188 4.09127 14.0941C4.08257 14.0712 4.07515 14.0334 4.0881 13.9751L4.091 13.9621L4.0932 13.9489L4.68822 10.3788C4.75218 10.1422 4.7012 9.91694 4.64168 9.76218C4.57634 9.59228 4.47308 9.43347 4.3562 9.31577L1.84265 6.73607C1.80405 6.68236 1.7918 6.60577 1.81602 6.53312C1.83942 6.46289 1.88063 6.43548 1.92869 6.42947L1.93571 6.4286L1.9427 6.42752L5.38037 5.89865C5.62288 5.88468 5.81985 5.76482 5.95116 5.64665C6.08686 5.52451 6.19923 5.3638 6.26382 5.18815L7.76375 1.92743C7.83281 1.84822 7.9142 1.82263 7.97444 1.8247C8.03114 1.82666 8.09843 1.85241 8.14984 1.95115L9.66966 5.25511C9.81712 5.65371 10.1857 5.85563 10.4419 5.94101Z" fill="#5E090A" stroke="#5E090A"/>
</svg>
