<svg width="19" height="18" viewBox="0 0 19 18" fill="none" xmlns="http://www.w3.org/2000/svg">
<path d="M9.92621 17.9537C9.48497 17.9537 9.04373 17.9537 8.6069 17.9537C8.3598 17.9184 8.1127 17.8919 7.87002 17.8522C5.6947 17.4815 3.83706 16.502 2.43833 14.7899C0.121802 11.9528 -0.381214 8.7714 1.044 5.40472C2.7472 1.385 6.96989 -0.706493 11.2367 0.215704C14.6563 0.952579 17.4317 3.79418 18.0715 7.21381C18.1377 7.58004 18.1907 7.95069 18.248 8.31692C18.248 8.75816 18.248 9.1994 18.248 9.63623C18.2127 9.88333 18.1863 10.1304 18.1466 10.3731C17.7715 12.5749 16.7478 14.4061 15.0446 15.8533C13.9415 16.7888 12.6796 17.4197 11.2676 17.7286C10.8263 17.8257 10.3719 17.8786 9.92621 17.9537ZM6.99195 11.6439C4.8078 10.0951 4.71955 7.20499 6.29479 5.51062C7.81707 3.87361 10.4072 3.77653 12.0442 5.31647C12.8208 6.04452 13.2532 6.95348 13.3105 8.01687C13.39 9.53033 12.7678 10.7261 11.5412 11.6395C13.0193 12.1778 14.1754 13.0956 15.0358 14.384C17.9127 11.3615 18.001 6.34015 14.7005 3.21615C11.4308 0.118631 6.20212 0.356902 3.23256 3.85154C0.40861 7.1741 0.9734 11.8292 3.50613 14.3796C3.92531 13.7486 4.42392 13.1971 5.01518 12.7338C5.61086 12.266 6.2639 11.9086 6.99195 11.6439ZM4.29596 15.1076C7.11108 17.5212 11.572 17.4374 14.2372 15.0988C13.0237 13.2721 11.3338 12.2837 9.12756 12.3278C7.04049 12.3763 5.43878 13.3647 4.29596 15.1076ZM12.2604 8.26838C12.2604 6.62255 10.9058 5.27234 9.26435 5.27234C7.62734 5.27676 6.28155 6.61813 6.27714 8.25514C6.26831 9.89657 7.62293 11.2556 9.26435 11.26C10.9014 11.2688 12.2604 9.91422 12.2604 8.26838Z" fill="black"/>
</svg>
